<svg width="100" height="101" viewBox="0 0 100 101" fill="none" xmlns="http://www.w3.org/2000/svg">
<g clip-path="url(#clip0_4_156)">
<path d="M54.607 79.2924C56.1375 80.9833 58.749 81.1133 60.4399 79.5828C62.1308 78.0523 62.2608 75.4408 60.7303 73.7499C59.1997 72.059 56.5882 71.929 54.8973 73.4595C53.2065 74.99 53.0765 77.6015 54.607 79.2924Z" fill="#DD7F72"/>
<g filter="url(#filter0_f_4_156)">
<path d="M54.0502 56.8857C53.588 46.137 55.1577 23.9944 55.9281 15.1335L52.6055 14.989C53.0389 28.3767 52.75 50.24 54.0502 56.8857Z" fill="#191919"/>
</g>
<g filter="url(#filter1_ddddd_4_156)">
<mask id="path-3-inside-1_4_156" fill="white">
<path fill-rule="evenodd" clip-rule="evenodd" d="M18.0209 36.5096C17.8293 36.7808 17.8742 37.153 18.1246 37.371L29.0511 46.8806C29.3279 47.1216 29.7495 47.0842 29.9797 46.7984L34.7838 40.8344C35.1667 40.3589 35.9347 40.6297 35.9347 41.2402V71.073H24.2173C23.86 71.073 23.5703 71.3627 23.5703 71.72V87.9607C23.5703 88.3181 23.86 88.6077 24.2173 88.6077H65.2938C65.6511 88.6077 65.9408 88.3181 65.9408 87.9607V71.72C65.9408 71.3627 65.6511 71.073 65.2938 71.073H53.0867V13.2395C53.0867 12.8762 52.7876 12.584 52.4243 12.5927L34.9406 13.01C34.7359 13.0148 34.5456 13.1163 34.4275 13.2835L18.0209 36.5096Z"/>
</mask>
<path fill-rule="evenodd" clip-rule="evenodd" d="M18.0209 36.5096C17.8293 36.7808 17.8742 37.153 18.1246 37.371L29.0511 46.8806C29.3279 47.1216 29.7495 47.0842 29.9797 46.7984L34.7838 40.8344C35.1667 40.3589 35.9347 40.6297 35.9347 41.2402V71.073H24.2173C23.86 71.073 23.5703 71.3627 23.5703 71.72V87.9607C23.5703 88.3181 23.86 88.6077 24.2173 88.6077H65.2938C65.6511 88.6077 65.9408 88.3181 65.9408 87.9607V71.72C65.9408 71.3627 65.6511 71.073 65.2938 71.073H53.0867V13.2395C53.0867 12.8762 52.7876 12.584 52.4243 12.5927L34.9406 13.01C34.7359 13.0148 34.5456 13.1163 34.4275 13.2835L18.0209 36.5096Z" fill="url(#paint0_linear_4_156)"/>
<path d="M18.1246 37.371L18.2559 37.2201H18.2559L18.1246 37.371ZM18.0209 36.5096L18.1843 36.625L18.1843 36.625L18.0209 36.5096ZM29.0511 46.8806L29.1824 46.7298H29.1824L29.0511 46.8806ZM29.9797 46.7984L29.824 46.673L29.9797 46.7984ZM34.7838 40.8344L34.628 40.7089L34.7838 40.8344ZM35.9347 71.073V71.273H36.1347V71.073H35.9347ZM53.0867 71.073H52.8867V71.273H53.0867V71.073ZM52.4243 12.5927L52.4195 12.3928L52.4243 12.5927ZM34.9406 13.01L34.9453 13.2099L34.9406 13.01ZM34.4275 13.2835L34.5909 13.3989L34.4275 13.2835ZM18.2559 37.2201C18.0829 37.0695 18.0519 36.8124 18.1843 36.625L17.8576 36.3943C17.6068 36.7493 17.6654 37.2365 17.9933 37.5219L18.2559 37.2201ZM29.1824 46.7298L18.2559 37.2201L17.9933 37.5219L28.9198 47.0315L29.1824 46.7298ZM29.824 46.673C29.6649 46.8704 29.3737 46.8962 29.1824 46.7298L28.9198 47.0315C29.2822 47.3469 29.8341 47.2981 30.1355 46.9239L29.824 46.673ZM34.628 40.7089L29.824 46.673L30.1355 46.9239L34.9395 40.9598L34.628 40.7089ZM36.1347 41.2402C36.1347 40.441 35.1294 40.0865 34.628 40.7089L34.9395 40.9598C35.2041 40.6313 35.7347 40.8184 35.7347 41.2402H36.1347ZM36.1347 71.073V41.2402H35.7347V71.073H36.1347ZM35.9347 70.873H24.2173V71.273H35.9347V70.873ZM24.2173 70.873C23.7495 70.873 23.3703 71.2522 23.3703 71.72H23.7703C23.7703 71.4731 23.9704 71.273 24.2173 71.273V70.873ZM23.3703 71.72V87.9607H23.7703V71.72H23.3703ZM23.3703 87.9607C23.3703 88.4285 23.7495 88.8077 24.2173 88.8077V88.4077C23.9704 88.4077 23.7703 88.2076 23.7703 87.9607H23.3703ZM24.2173 88.8077H65.2938V88.4077H24.2173V88.8077ZM65.2938 88.8077C65.7616 88.8077 66.1408 88.4285 66.1408 87.9607H65.7408C65.7408 88.2076 65.5407 88.4077 65.2938 88.4077V88.8077ZM66.1408 87.9607V71.72H65.7408V87.9607H66.1408ZM66.1408 71.72C66.1408 71.2522 65.7616 70.873 65.2938 70.873V71.273C65.5407 71.273 65.7408 71.4731 65.7408 71.72H66.1408ZM65.2938 70.873H53.0867V71.273H65.2938V70.873ZM52.8867 13.2395V71.073H53.2867V13.2395H52.8867ZM52.4291 12.7927C52.68 12.7867 52.8867 12.9885 52.8867 13.2395H53.2867C53.2867 12.7638 52.8951 12.3814 52.4195 12.3928L52.4291 12.7927ZM34.9453 13.2099L52.4291 12.7927L52.4195 12.3928L34.9358 12.81L34.9453 13.2099ZM34.5909 13.3989C34.6725 13.2834 34.8039 13.2133 34.9453 13.2099L34.9358 12.81C34.6679 12.8164 34.4188 12.9492 34.2642 13.1681L34.5909 13.3989ZM18.1843 36.625L34.5909 13.3989L34.2642 13.1681L17.8576 36.3943L18.1843 36.625Z" fill="url(#paint1_linear_4_156)" mask="url(#path-3-inside-1_4_156)"/>
</g>
<g filter="url(#filter2_dddd_4_156)">
<path d="M87.5404 22.7366L79.0098 17.8114L60.2418 50.3184L68.7725 55.2436L87.5404 22.7366Z" fill="#E4AE48"/>
<path d="M60.3784 50.2818L79.0464 17.948L87.4038 22.7732L68.7358 55.107L60.3784 50.2818Z" stroke="url(#paint2_linear_4_156)" stroke-width="0.2"/>
</g>
<g filter="url(#filter3_dddd_4_156)">
<path d="M65.5 30.8484C68.5376 30.8484 71 28.1621 71 24.8484C71 21.5347 68.5376 18.8484 65.5 18.8484C62.4624 18.8484 60 21.5347 60 24.8484C60 28.1621 62.4624 30.8484 65.5 30.8484Z" fill="#E4AE48"/>
<path d="M70.9 24.8484C70.9 28.1152 68.4743 30.7484 65.5 30.7484C62.5257 30.7484 60.1 28.1152 60.1 24.8484C60.1 21.5815 62.5257 18.9484 65.5 18.9484C68.4743 18.9484 70.9 21.5815 70.9 24.8484Z" stroke="url(#paint3_linear_4_156)" stroke-width="0.2"/>
</g>
<g filter="url(#filter4_dddd_4_156)">
<path d="M82.5 54.8484C85.5376 54.8484 88 52.386 88 49.3484C88 46.3108 85.5376 43.8484 82.5 43.8484C79.4624 43.8484 77 46.3108 77 49.3484C77 52.386 79.4624 54.8484 82.5 54.8484Z" fill="#E4AE48"/>
<path d="M87.9 49.3484C87.9 52.3307 85.4823 54.7484 82.5 54.7484C79.5177 54.7484 77.1 52.3307 77.1 49.3484C77.1 46.3661 79.5177 43.9484 82.5 43.9484C85.4823 43.9484 87.9 46.3661 87.9 49.3484Z" stroke="url(#paint4_linear_4_156)" stroke-width="0.2"/>
</g>
</g>
<defs>
<filter id="filter0_f_4_156" x="48.6055" y="10.989" width="11.3226" height="49.8967" filterUnits="userSpaceOnUse" color-interpolation-filters="sRGB">
<feFlood flood-opacity="0" result="BackgroundImageFix"/>
<feBlend mode="normal" in="SourceGraphic" in2="BackgroundImageFix" result="shape"/>
<feGaussianBlur stdDeviation="2" result="effect1_foregroundBlur_4_156"/>
</filter>
<filter id="filter1_ddddd_4_156" x="13.9023" y="12.5925" width="56.0385" height="94.0153" filterUnits="userSpaceOnUse" color-interpolation-filters="sRGB">
<feFlood flood-opacity="0" result="BackgroundImageFix"/>
<feColorMatrix in="SourceAlpha" type="matrix" values="0 0 0 0 0 0 0 0 0 0 0 0 0 0 0 0 0 0 127 0" result="hardAlpha"/>
<feOffset dy="1"/>
<feGaussianBlur stdDeviation="0.5"/>
<feColorMatrix type="matrix" values="0 0 0 0 0 0 0 0 0 0 0 0 0 0 0 0 0 0 0.27 0"/>
<feBlend mode="normal" in2="BackgroundImageFix" result="effect1_dropShadow_4_156"/>
<feColorMatrix in="SourceAlpha" type="matrix" values="0 0 0 0 0 0 0 0 0 0 0 0 0 0 0 0 0 0 127 0" result="hardAlpha"/>
<feOffset dy="2"/>
<feGaussianBlur stdDeviation="1"/>
<feColorMatrix type="matrix" values="0 0 0 0 0 0 0 0 0 0 0 0 0 0 0 0 0 0 0.24 0"/>
<feBlend mode="normal" in2="effect1_dropShadow_4_156" result="effect2_dropShadow_4_156"/>
<feColorMatrix in="SourceAlpha" type="matrix" values="0 0 0 0 0 0 0 0 0 0 0 0 0 0 0 0 0 0 127 0" result="hardAlpha"/>
<feOffset dy="5"/>
<feGaussianBlur stdDeviation="1.5"/>
<feColorMatrix type="matrix" values="0 0 0 0 0 0 0 0 0 0 0 0 0 0 0 0 0 0 0.14 0"/>
<feBlend mode="normal" in2="effect2_dropShadow_4_156" result="effect3_dropShadow_4_156"/>
<feColorMatrix in="SourceAlpha" type="matrix" values="0 0 0 0 0 0 0 0 0 0 0 0 0 0 0 0 0 0 127 0" result="hardAlpha"/>
<feOffset dy="9"/>
<feGaussianBlur stdDeviation="2"/>
<feColorMatrix type="matrix" values="0 0 0 0 0 0 0 0 0 0 0 0 0 0 0 0 0 0 0.04 0"/>
<feBlend mode="normal" in2="effect3_dropShadow_4_156" result="effect4_dropShadow_4_156"/>
<feColorMatrix in="SourceAlpha" type="matrix" values="0 0 0 0 0 0 0 0 0 0 0 0 0 0 0 0 0 0 127 0" result="hardAlpha"/>
<feOffset dy="14"/>
<feGaussianBlur stdDeviation="2"/>
<feColorMatrix type="matrix" values="0 0 0 0 0 0 0 0 0 0 0 0 0 0 0 0 0 0 0.01 0"/>
<feBlend mode="normal" in2="effect4_dropShadow_4_156" result="effect5_dropShadow_4_156"/>
<feBlend mode="normal" in="SourceGraphic" in2="effect5_dropShadow_4_156" result="shape"/>
</filter>
<filter id="filter2_dddd_4_156" x="57.2418" y="16.8114" width="39.2986" height="58.4321" filterUnits="userSpaceOnUse" color-interpolation-filters="sRGB">
<feFlood flood-opacity="0" result="BackgroundImageFix"/>
<feColorMatrix in="SourceAlpha" type="matrix" values="0 0 0 0 0 0 0 0 0 0 0 0 0 0 0 0 0 0 127 0" result="hardAlpha"/>
<feOffset dy="1"/>
<feGaussianBlur stdDeviation="1"/>
<feColorMatrix type="matrix" values="0 0 0 0 0 0 0 0 0 0 0 0 0 0 0 0 0 0 0.19 0"/>
<feBlend mode="normal" in2="BackgroundImageFix" result="effect1_dropShadow_4_156"/>
<feColorMatrix in="SourceAlpha" type="matrix" values="0 0 0 0 0 0 0 0 0 0 0 0 0 0 0 0 0 0 127 0" result="hardAlpha"/>
<feOffset dx="1" dy="3"/>
<feGaussianBlur stdDeviation="2"/>
<feColorMatrix type="matrix" values="0 0 0 0 0 0 0 0 0 0 0 0 0 0 0 0 0 0 0.17 0"/>
<feBlend mode="normal" in2="effect1_dropShadow_4_156" result="effect2_dropShadow_4_156"/>
<feColorMatrix in="SourceAlpha" type="matrix" values="0 0 0 0 0 0 0 0 0 0 0 0 0 0 0 0 0 0 127 0" result="hardAlpha"/>
<feOffset dx="2" dy="8"/>
<feGaussianBlur stdDeviation="2.5"/>
<feColorMatrix type="matrix" values="0 0 0 0 0 0 0 0 0 0 0 0 0 0 0 0 0 0 0.1 0"/>
<feBlend mode="normal" in2="effect2_dropShadow_4_156" result="effect3_dropShadow_4_156"/>
<feColorMatrix in="SourceAlpha" type="matrix" values="0 0 0 0 0 0 0 0 0 0 0 0 0 0 0 0 0 0 127 0" result="hardAlpha"/>
<feOffset dx="3" dy="14"/>
<feGaussianBlur stdDeviation="3"/>
<feColorMatrix type="matrix" values="0 0 0 0 0 0 0 0 0 0 0 0 0 0 0 0 0 0 0.03 0"/>
<feBlend mode="normal" in2="effect3_dropShadow_4_156" result="effect4_dropShadow_4_156"/>
<feBlend mode="normal" in="SourceGraphic" in2="effect4_dropShadow_4_156" result="shape"/>
</filter>
<filter id="filter3_dddd_4_156" x="57" y="17.8484" width="23" height="33" filterUnits="userSpaceOnUse" color-interpolation-filters="sRGB">
<feFlood flood-opacity="0" result="BackgroundImageFix"/>
<feColorMatrix in="SourceAlpha" type="matrix" values="0 0 0 0 0 0 0 0 0 0 0 0 0 0 0 0 0 0 127 0" result="hardAlpha"/>
<feOffset dy="1"/>
<feGaussianBlur stdDeviation="1"/>
<feColorMatrix type="matrix" values="0 0 0 0 0 0 0 0 0 0 0 0 0 0 0 0 0 0 0.19 0"/>
<feBlend mode="normal" in2="BackgroundImageFix" result="effect1_dropShadow_4_156"/>
<feColorMatrix in="SourceAlpha" type="matrix" values="0 0 0 0 0 0 0 0 0 0 0 0 0 0 0 0 0 0 127 0" result="hardAlpha"/>
<feOffset dx="1" dy="3"/>
<feGaussianBlur stdDeviation="2"/>
<feColorMatrix type="matrix" values="0 0 0 0 0 0 0 0 0 0 0 0 0 0 0 0 0 0 0.17 0"/>
<feBlend mode="normal" in2="effect1_dropShadow_4_156" result="effect2_dropShadow_4_156"/>
<feColorMatrix in="SourceAlpha" type="matrix" values="0 0 0 0 0 0 0 0 0 0 0 0 0 0 0 0 0 0 127 0" result="hardAlpha"/>
<feOffset dx="2" dy="8"/>
<feGaussianBlur stdDeviation="2.5"/>
<feColorMatrix type="matrix" values="0 0 0 0 0 0 0 0 0 0 0 0 0 0 0 0 0 0 0.1 0"/>
<feBlend mode="normal" in2="effect2_dropShadow_4_156" result="effect3_dropShadow_4_156"/>
<feColorMatrix in="SourceAlpha" type="matrix" values="0 0 0 0 0 0 0 0 0 0 0 0 0 0 0 0 0 0 127 0" result="hardAlpha"/>
<feOffset dx="3" dy="14"/>
<feGaussianBlur stdDeviation="3"/>
<feColorMatrix type="matrix" values="0 0 0 0 0 0 0 0 0 0 0 0 0 0 0 0 0 0 0.03 0"/>
<feBlend mode="normal" in2="effect3_dropShadow_4_156" result="effect4_dropShadow_4_156"/>
<feBlend mode="normal" in="SourceGraphic" in2="effect4_dropShadow_4_156" result="shape"/>
</filter>
<filter id="filter4_dddd_4_156" x="74" y="42.8484" width="23" height="32" filterUnits="userSpaceOnUse" color-interpolation-filters="sRGB">
<feFlood flood-opacity="0" result="BackgroundImageFix"/>
<feColorMatrix in="SourceAlpha" type="matrix" values="0 0 0 0 0 0 0 0 0 0 0 0 0 0 0 0 0 0 127 0" result="hardAlpha"/>
<feOffset dy="1"/>
<feGaussianBlur stdDeviation="1"/>
<feColorMatrix type="matrix" values="0 0 0 0 0 0 0 0 0 0 0 0 0 0 0 0 0 0 0.19 0"/>
<feBlend mode="normal" in2="BackgroundImageFix" result="effect1_dropShadow_4_156"/>
<feColorMatrix in="SourceAlpha" type="matrix" values="0 0 0 0 0 0 0 0 0 0 0 0 0 0 0 0 0 0 127 0" result="hardAlpha"/>
<feOffset dx="1" dy="3"/>
<feGaussianBlur stdDeviation="2"/>
<feColorMatrix type="matrix" values="0 0 0 0 0 0 0 0 0 0 0 0 0 0 0 0 0 0 0.17 0"/>
<feBlend mode="normal" in2="effect1_dropShadow_4_156" result="effect2_dropShadow_4_156"/>
<feColorMatrix in="SourceAlpha" type="matrix" values="0 0 0 0 0 0 0 0 0 0 0 0 0 0 0 0 0 0 127 0" result="hardAlpha"/>
<feOffset dx="2" dy="8"/>
<feGaussianBlur stdDeviation="2.5"/>
<feColorMatrix type="matrix" values="0 0 0 0 0 0 0 0 0 0 0 0 0 0 0 0 0 0 0.1 0"/>
<feBlend mode="normal" in2="effect2_dropShadow_4_156" result="effect3_dropShadow_4_156"/>
<feColorMatrix in="SourceAlpha" type="matrix" values="0 0 0 0 0 0 0 0 0 0 0 0 0 0 0 0 0 0 127 0" result="hardAlpha"/>
<feOffset dx="3" dy="14"/>
<feGaussianBlur stdDeviation="3"/>
<feColorMatrix type="matrix" values="0 0 0 0 0 0 0 0 0 0 0 0 0 0 0 0 0 0 0.03 0"/>
<feBlend mode="normal" in2="effect3_dropShadow_4_156" result="effect4_dropShadow_4_156"/>
<feBlend mode="normal" in="SourceGraphic" in2="effect4_dropShadow_4_156" result="shape"/>
</filter>
<linearGradient id="paint0_linear_4_156" x1="41.9216" y1="12.5925" x2="41.9216" y2="88.6077" gradientUnits="userSpaceOnUse">
<stop stop-color="#8E8CBD"/>
<stop offset="1" stop-color="#706F9C"/>
</linearGradient>
<linearGradient id="paint1_linear_4_156" x1="41.9216" y1="12.5925" x2="41.9216" y2="88.6077" gradientUnits="userSpaceOnUse">
<stop stop-color="#A3C6A4"/>
<stop offset="1" stop-color="#688D69"/>
</linearGradient>
<linearGradient id="paint2_linear_4_156" x1="85.3489" y1="25.3522" x2="60.5455" y2="26.4552" gradientUnits="userSpaceOnUse">
<stop stop-color="#FFD27E"/>
<stop offset="1" stop-color="#E3AE48"/>
</linearGradient>
<linearGradient id="paint3_linear_4_156" x1="70.341" y1="19.9229" x2="64.8315" y2="32.2054" gradientUnits="userSpaceOnUse">
<stop stop-color="#FFD27E"/>
<stop offset="1" stop-color="#E3AE48"/>
</linearGradient>
<linearGradient id="paint4_linear_4_156" x1="87.341" y1="44.8333" x2="82.5842" y2="56.4018" gradientUnits="userSpaceOnUse">
<stop stop-color="#FFD27E"/>
<stop offset="1" stop-color="#E3AE48"/>
</linearGradient>
<clipPath id="clip0_4_156">
<rect width="100" height="100" fill="white" transform="translate(0 0.848389)"/>
</clipPath>
</defs>
</svg>
