<svg width="196" height="63" viewBox="0 0 196 63" fill="none" xmlns="http://www.w3.org/2000/svg">
<path fill-rule="evenodd" clip-rule="evenodd" d="M16.0453 0.916594C22.5586 -0.258503 29.2873 3.79143 31.0352 10.5144L31.0627 10.62L31.0845 10.7269C31.8953 14.7074 31.9185 19.7938 30.6829 24.9524C38.4462 24.6246 44.3827 28.6991 46.6398 34.4667C48.0032 37.9506 47.9293 41.999 45.8647 45.4583C43.7717 48.965 39.9873 51.2911 35.0451 52.0432L34.9398 52.0592L34.8339 52.0698C24.9394 53.0513 17.5747 50.7838 12.4684 46.2394C10.5708 46.9691 8.51152 47.5537 6.28183 47.9666L2.26559 48.7104L0.778076 40.6779L4.79431 39.9341C5.63543 39.7784 6.44081 39.5925 7.21184 39.3788C4.11391 33.3742 3.31781 26.2488 3.4804 19.9078L3.4815 19.8648L3.48351 19.8218C3.99303 8.91811 8.98049 2.19118 16.0453 0.916594ZM20.2581 41.8201C23.3753 43.5976 27.7321 44.5487 33.917 43.9514C36.9126 43.4732 38.2682 42.2465 38.85 41.2717C39.4666 40.2385 39.5912 38.8713 39.0326 37.4437C38.015 34.8435 34.2935 31.6269 27.1667 33.8063C25.4411 36.7623 23.1636 39.5108 20.2581 41.8201ZM14.5956 35.8683C12.3269 31.6204 11.5 26.0274 11.6457 20.1606C12.0663 11.3974 15.6328 9.29194 17.4956 8.95585C19.8822 8.52529 22.4177 10.0464 23.1034 12.4754C24.761 20.9132 21.6349 30.6856 14.5956 35.8683Z" fill="#FDCB6C"/>
<path d="M165.426 53.2241L165.287 53.2767L165.338 53.4165C166.374 56.2168 168.216 58.4416 170.859 60.0886C173.502 61.7356 176.582 62.5567 180.095 62.5567C183.035 62.5567 185.657 61.9456 187.956 60.7194C190.291 59.4942 192.113 57.8077 193.417 55.6602C194.721 53.5117 195.372 51.0768 195.372 48.3599V18.9583V18.8083H195.222H188.17H188.02V18.9583V22.118C187.079 21.0614 186.015 20.2102 184.83 19.5658C183.06 18.6042 181.007 18.1258 178.673 18.1258C175.805 18.1258 173.22 18.7952 170.92 20.1365C168.659 21.4394 166.877 23.2602 165.576 25.5959L165.576 25.5959L165.575 25.5975C164.311 27.9339 163.68 30.5368 163.68 33.4032C163.68 36.3078 164.33 38.9304 165.633 41.2674C166.935 43.6034 168.736 45.4428 171.034 46.7834L171.035 46.7839C173.372 48.1248 175.976 48.7943 178.844 48.7943C181.14 48.7943 183.193 48.3157 184.999 47.355C185.982 46.8323 186.856 46.1733 187.622 45.3788V48.3599C187.622 49.8162 187.305 51.0782 186.676 52.1512C186.047 53.2244 185.16 54.0382 184.01 54.5943L184.009 54.5952C182.896 55.1516 181.592 55.4324 180.095 55.4324C178.184 55.4324 176.564 55.0018 175.228 54.148C173.891 53.2941 173.005 52.1473 172.561 50.7043L172.514 50.5518L172.364 50.6081L165.426 53.2241ZM186.559 29.265L186.559 29.265L186.562 29.2697C187.268 30.4957 187.622 31.8912 187.622 33.46C187.622 35.0689 187.286 36.4842 186.617 37.7103C185.947 38.9375 185.019 39.9031 183.83 40.6095C182.642 41.2773 181.285 41.613 179.753 41.613C178.223 41.613 176.847 41.2588 175.62 40.5525C174.392 39.8456 173.426 38.8794 172.719 37.6519C172.05 36.4257 171.714 35.0296 171.714 33.46C171.714 31.929 172.05 30.5321 172.72 29.2665C173.427 28.0013 174.393 27.0169 175.62 26.3107C176.847 25.6045 178.223 25.2502 179.753 25.2502C181.284 25.2502 182.621 25.6045 183.77 26.3086L183.772 26.3097C184.96 27.0155 185.889 27.9995 186.559 29.265Z" fill="#FDCB6C" stroke="#FDCB6C" stroke-width="0.3"/>
<path d="M133.076 18.8083H132.926V18.9583V49.8954V50.0454H133.076H140.526H140.676V49.8954V31.754C140.676 29.7748 141.235 28.2032 142.341 27.0235C143.485 25.8431 144.96 25.2502 146.782 25.2502C147.97 25.2502 149.024 25.5285 149.946 26.0819L149.946 26.0819L149.95 26.0841C150.87 26.5997 151.59 27.3546 152.108 28.3539L152.108 28.354L152.109 28.356C152.626 29.3162 152.887 30.4472 152.887 31.754V49.8954V50.0454H153.037H160.487H160.637V49.8954V29.991C160.637 27.6938 160.139 25.64 159.14 23.8333C158.14 22.0267 156.736 20.6226 154.93 19.6232C153.123 18.624 151.089 18.1258 148.829 18.1258C146.532 18.1258 144.552 18.6236 142.894 19.6258C141.801 20.2767 140.91 21.1382 140.221 22.2078V18.9583V18.8083H140.071H133.076Z" fill="#FDCB6C" stroke="#FDCB6C" stroke-width="0.3"/>
<path d="M104.435 48.6045L104.436 48.605C106.998 50.0203 109.772 50.7278 112.754 50.7278C115.774 50.7278 118.548 50.0204 121.074 48.6045C123.598 47.1891 125.589 45.2561 127.044 42.8068C128.537 40.3175 129.283 37.523 129.283 34.4268C129.283 31.3684 128.537 28.593 127.044 26.1042C125.59 23.6172 123.599 21.665 121.074 20.2494C118.586 18.833 115.811 18.1258 112.754 18.1258C109.735 18.1258 106.96 18.8332 104.435 20.2492C101.909 21.6648 99.9187 23.6173 98.4644 26.1046C97.0089 28.5561 96.2826 31.3316 96.2826 34.4268C96.2826 37.4848 97.0092 40.2599 98.4642 42.7486C99.9184 45.2362 101.909 47.1887 104.435 48.6045ZM120.071 29.7183L120.071 29.7183L120.072 29.7211C120.817 31.0995 121.192 32.6668 121.192 34.4268C121.192 36.1868 120.817 37.7737 120.071 39.1909L120.071 39.1922C119.362 40.5718 118.376 41.6504 117.111 42.4316C115.848 43.212 114.416 43.6035 112.811 43.6035C111.168 43.6035 109.698 43.2118 108.396 42.4311C107.132 41.6498 106.127 40.5712 105.381 39.1915C104.672 37.7743 104.317 36.1871 104.317 34.4268C104.317 32.6662 104.673 31.0983 105.38 29.7197C106.127 28.3394 107.132 27.2603 108.397 26.4789L108.398 26.4783C109.7 25.6599 111.151 25.2502 112.754 25.2502C114.396 25.2502 115.846 25.6602 117.109 26.4773L117.109 26.4773L117.111 26.4789C118.376 27.2602 119.362 28.3388 120.071 29.7183Z" fill="#FDCB6C" stroke="#FDCB6C" stroke-width="0.3"/>
<path d="M85.0624 6.69509H84.9124V6.84509V49.8955V50.0455H85.0624H92.5123H92.6623V49.8955V6.84509V6.69509H92.5123H85.0624Z" fill="#FDCB6C" stroke="#FDCB6C" stroke-width="0.3"/>
<path d="M58.2388 48.6026L58.2403 48.6035C60.692 50.0209 63.4861 50.7278 66.6184 50.7278C69.7506 50.7278 72.5262 50.0209 74.9404 48.603C77.3527 47.1863 79.045 45.3433 80.0071 43.0727L80.0625 42.942L79.9351 42.8795L73.9069 39.9223L73.7809 39.8604L73.7108 39.9821C73.0033 41.2109 72.0552 42.1775 70.8654 42.8843C69.6785 43.5515 68.2835 43.8878 66.6752 43.8878C64.9944 43.8878 63.5058 43.4961 62.205 42.7162C60.9418 41.8983 59.9752 40.7836 59.3047 39.3686C58.9386 38.5498 58.7026 37.6542 58.5981 36.681H80.7221H80.8302L80.8644 36.5784C81.1368 35.7611 81.2701 34.7007 81.2701 33.4032C81.2701 30.6127 80.6583 28.0484 79.4331 25.7129C78.207 23.3755 76.4434 21.5353 74.1451 20.1943C71.8809 18.8131 69.1803 18.1258 66.0497 18.1258C63.1427 18.1258 60.4999 18.8338 58.1248 20.2512C55.7505 21.6681 53.8929 23.6217 52.5534 26.1092C51.2134 28.5597 50.5448 31.3144 50.5448 34.37C50.5448 37.3882 51.2136 40.1612 52.5527 42.6864L52.5532 42.6872C53.8932 45.1757 55.7891 47.1482 58.2388 48.6026ZM72.9876 30.694H58.7829C58.8987 30.1459 59.0548 29.6269 59.2508 29.1368C59.8474 27.6454 60.7388 26.5152 61.9227 25.738C63.1484 24.9583 64.5227 24.5678 66.0497 24.5678C67.6158 24.5678 68.9695 24.9589 70.117 25.7362C71.2644 26.5135 72.0791 27.5862 72.5619 28.9602L72.5618 28.9602L72.5636 28.9648C72.7765 29.5121 72.918 30.0884 72.9876 30.694Z" fill="#FDCB6C" stroke="#FDCB6C" stroke-width="0.3"/>
</svg>
