<svg width="544" height="357" viewBox="0 0 544 357" fill="none" xmlns="http://www.w3.org/2000/svg">
<g filter="url(#filter0_d_246_15197)">
<path d="M390.235 277.439C467.649 261.063 514.917 269.995 528.874 276.508L532.596 316.518H244.153V305.352C273.928 306.283 355.808 283.952 390.235 277.439Z" fill="url(#paint0_linear_246_15197)"/>
</g>
<g filter="url(#filter1_d_246_15197)">
<path d="M261.229 192.565L257.314 195.146V328.143H312.033V260.674H304.823V212.006H296.243V164.637H288.312V92.898H282.4L280.092 92.8259L283.745 23.4662H282.375V4H277.064V23.3589H276.033L272.372 36.2522V61.4018H269.984L266.96 70.6334V134.465L264.094 134.624L260.911 138.285L261.229 192.565Z" fill="#F5F58B"/>
</g>
<g filter="url(#filter2_d_246_15197)">
<path d="M263.777 192.565L259.861 195.146V328.143H314.58V260.674H307.37V212.006H298.79V164.637H290.859V92.898H284.947L282.64 92.8259V23.4662H281.27V4H279.612V23.3589H278.58L274.919 36.2522V61.4018H272.532L269.507 70.6334V134.465L266.642 134.624L263.458 138.285L263.777 192.565Z" fill="url(#paint1_linear_246_15197)"/>
</g>
<g filter="url(#filter3_d_246_15197)">
<path d="M263.629 193.17V331.636L283.09 331.138V114.581H277.601V193.17H263.629Z" fill="#DBCDBC"/>
<path d="M296.063 328.144V212.132C296.063 211.741 303.392 211.956 307.29 212.121V260.782H314.775V328.144H296.063Z" fill="#DBCDBC"/>
</g>
<g filter="url(#filter4_d_246_15197)">
<path d="M346.353 325.628V147.225H354.916V136.12H358.77V123.086H397.669V136.12H402.459V147.225H411.735V324.745L346.353 325.628Z" fill="#FFE600"/>
</g>
<g filter="url(#filter5_d_246_15197)">
<path d="M349.153 325.628V147.225H357.716V136.12H361.57V123.086H400.469V136.12H405.259V147.225H414.535V324.745L349.153 325.628Z" fill="url(#paint2_linear_246_15197)"/>
</g>
<g filter="url(#filter6_i_246_15197)">
<path d="M365.643 187.804V290.953L361.098 290.604V171.371L399.66 243.551C399.66 219.075 398.861 167.804 398.861 167.525H403.756V260.183L365.643 187.804Z" fill="#D2C8BA"/>
</g>
<path d="M425.707 147.015V323.758L471.391 323.337V192.927H457.41V160.361H466.48L465.541 70.949L463.015 71.3927L462.715 105.259L425.707 147.015Z" fill="#FFE600"/>
<g filter="url(#filter7_d_246_15197)">
<path d="M428.507 147.948V324.691L474.191 324.271V193.861H460.21V161.294H469.28V74.7064L465.515 70.9414V106.192L428.507 147.948Z" fill="url(#paint3_linear_246_15197)"/>
</g>
<g filter="url(#filter8_i_246_15197)">
<path d="M461.896 122.447V130.559L438.633 158.658V150.977L461.896 122.447Z" fill="url(#paint4_linear_246_15197)"/>
</g>
<g filter="url(#filter9_i_246_15197)">
<path d="M436.894 216.757H443.749L443.578 306.956H436.894V216.757Z" fill="url(#paint5_linear_246_15197)"/>
</g>
<g filter="url(#filter10_d_246_15197)">
<path d="M529.979 147.948V324.691L484.294 324.271V207.769H498.275V174.541H483.907V74.7062L489.635 71.0135L487.009 106.192L529.979 147.948Z" fill="#FFE600"/>
</g>
<g filter="url(#filter11_d_246_15197)">
<path d="M532.778 147.948V324.691L487.094 324.271V207.77H501.075V174.541H486.707V74.7064L489.809 70.9414V106.192L532.778 147.948Z" fill="url(#paint6_linear_246_15197)"/>
</g>
<g filter="url(#filter12_i_246_15197)">
<path d="M497.122 141.321V131.664L523.457 156.683V165.901L497.122 141.321Z" fill="url(#paint7_linear_246_15197)"/>
</g>
<g filter="url(#filter13_i_246_15197)">
<path d="M518.564 224.705H525.419L525.247 314.904H518.564V224.705Z" fill="url(#paint8_linear_246_15197)"/>
</g>
<g filter="url(#filter14_i_246_15197)">
<rect x="93.7198" y="196.004" width="49.2845" height="106.603" fill="#D2C8BA"/>
</g>
<g filter="url(#filter15_d_246_15197)">
<path fill-rule="evenodd" clip-rule="evenodd" d="M155.897 323.588H144.34V163.378V158.828V152.125C143.666 147.876 145.297 145.904 147.375 144.485C149.839 142.941 149.902 140.61 149.903 140.476C149.896 141.904 151.179 143.169 152.936 144.368C156.332 146.821 156.099 149.654 155.932 151.687C155.92 151.837 155.908 151.983 155.897 152.125V158.705V163.255V190.154H194.407V188.633V181.93C193.732 177.682 195.364 175.71 197.442 174.29C199.905 172.747 199.968 170.415 199.97 170.281C199.963 171.709 201.246 172.974 203.002 174.174C206.398 176.626 206.166 179.459 205.998 181.493C205.986 181.643 205.974 181.789 205.964 181.93V188.51V193.06V231.666H230.789V304.988H205.964V353.393H194.407V322.638H155.897V323.588ZM88.928 323.588H77.3706V322.638H38.8615V353.393H27.3041V304.988H2.47876V231.666H27.3041V193.06V188.51V181.93C27.294 181.789 27.282 181.643 27.2696 181.493L27.2696 181.493C27.1025 179.459 26.8697 176.626 30.2659 174.174C32.0224 172.974 33.3053 171.709 33.2982 170.281C33.2998 170.415 33.3625 172.747 35.8262 174.29C37.9043 175.71 39.5359 177.682 38.8615 181.93V188.633V190.154H77.3706V163.255V158.705V152.125C77.3604 151.984 77.3485 151.838 77.3361 151.688L77.3361 151.687L77.3361 151.687C77.169 149.654 76.9361 146.821 80.3323 144.368C82.0889 143.169 83.3717 141.904 83.3647 140.476C83.3663 140.61 83.429 142.941 85.8927 144.485C87.9708 145.904 89.6024 147.876 88.928 152.125V158.828V163.378V190.07L103.505 190.07L103.506 186.723L103.515 186.596C103.688 184.286 103.977 180.426 110.05 177.693C115.703 174.989 116.176 173.662 116.789 171.925C116.791 171.897 116.794 171.886 116.797 171.891L116.799 171.896L116.801 171.891C116.804 171.886 116.806 171.897 116.809 171.925C117.422 173.662 117.895 174.989 123.548 177.693C129.621 180.426 129.91 184.286 130.083 186.596L130.092 186.723L130.092 190.07H144.339V322.841H136.55C136.466 316.727 136.349 276.901 136.55 272.479C136.746 265.833 135.876 264.205 133.706 260.142C133.087 258.983 132.362 257.625 131.525 255.897C128.155 248.996 130.935 244.453 133.515 240.238L133.515 240.238C134.974 237.854 136.369 235.575 136.55 233.033C136.56 220.366 129.637 214.556 123.822 209.677C120.935 207.254 118.321 205.06 116.964 202.371C115.592 205.079 112.875 207.284 109.866 209.727C103.868 214.596 96.7066 220.409 96.7162 233.033C96.8977 235.575 98.2925 237.854 99.7515 240.238C102.331 244.453 105.111 248.996 101.741 255.897C100.905 257.625 100.18 258.982 99.5606 260.142L99.5605 260.142C97.3899 264.205 96.5207 265.832 96.7162 272.479C96.9172 276.901 96.8 316.727 96.7162 322.841H88.928V323.588ZM122.483 190.07V188.629C122.483 185.519 119.963 182.999 116.853 182.999C113.744 182.999 111.223 185.519 111.223 188.629V190.07L117.137 190.07H122.483Z" fill="#FFE600"/>
</g>
<g filter="url(#filter16_d_246_15197)">
<path fill-rule="evenodd" clip-rule="evenodd" d="M131.959 186.723L131.96 191.965L124.35 191.809V188.629C124.35 185.519 121.829 182.999 118.72 182.999C115.61 182.999 113.089 185.519 113.089 188.629V191.807L105.371 191.965L105.372 186.723L105.382 186.597C105.554 184.287 105.843 180.426 111.916 177.693C117.571 174.989 118.043 173.661 118.656 171.924C118.658 171.897 118.661 171.886 118.664 171.892L118.666 171.896L118.667 171.892C118.67 171.886 118.673 171.897 118.675 171.924C119.288 173.661 119.76 174.989 125.415 177.693C131.488 180.426 131.777 184.287 131.949 186.597L131.959 186.723Z" fill="url(#paint9_linear_246_15197)"/>
</g>
<g filter="url(#filter17_d_246_15197)">
<path d="M40.0732 322.638V190.154H79.3119V322.638H40.0732Z" fill="url(#paint10_linear_246_15197)"/>
</g>
<g filter="url(#filter18_d_246_15197)">
<path d="M40.728 353.393H29.1706V193.061V188.511V181.93C29.0233 179.881 28.485 176.808 32.1324 174.174C33.8914 172.973 34.9123 171.685 34.9016 170.254C34.9218 170.481 35.4227 172.702 37.6928 174.291C39.7709 175.71 41.4024 177.682 40.728 181.93V188.634V193.184V353.393Z" fill="#EEE6DB"/>
</g>
<g filter="url(#filter19_d_246_15197)">
<path d="M4.34521 231.666V304.988H29.3528V231.666H4.34521Z" fill="url(#paint11_linear_246_15197)"/>
</g>
<g filter="url(#filter20_ii_246_15197)">
<path d="M7.08325 251.304C7.08325 245.844 11.5095 241.417 16.9695 241.417C22.4295 241.417 26.8557 245.844 26.8557 251.304V275.985H7.08325V251.304Z" fill="#DBCDBC"/>
</g>
<g filter="url(#filter21_i_246_15197)">
<path d="M50.0989 230.462V285.118H70.1479V230.462C70.1479 230.462 71.1046 220.006 60.1234 211.796C49.7249 218.224 50.0989 230.462 50.0989 230.462Z" fill="#D2C8BA"/>
</g>
<g filter="url(#filter22_d_246_15197)">
<path fill-rule="evenodd" clip-rule="evenodd" d="M119.004 190.07V190.07H90.7942V322.841H98.5828C98.6666 316.727 98.7838 276.901 98.5828 272.479C98.3874 265.833 99.2566 264.205 101.427 260.142C102.046 258.983 102.771 257.626 103.608 255.897C106.978 248.996 104.198 244.453 101.618 240.238C100.159 237.854 98.7644 235.575 98.5828 233.033C98.5733 220.409 105.734 214.596 111.733 209.727C114.742 207.284 117.458 205.079 118.831 202.371C120.187 205.061 122.801 207.254 125.688 209.677C131.503 214.557 138.426 220.366 138.417 233.033C138.235 235.575 136.84 237.854 135.381 240.238C132.802 244.453 130.022 248.996 133.392 255.897C134.228 257.626 134.953 258.983 135.572 260.142C137.743 264.206 138.612 265.833 138.417 272.479C138.216 276.901 138.333 316.727 138.417 322.841H146.205V190.07H119.004Z" fill="url(#paint12_linear_246_15197)"/>
</g>
<g filter="url(#filter23_d_246_15197)">
<path d="M90.7946 323.588H79.2372V163.255V158.705V152.125C79.0899 150.075 78.5515 147.003 82.1989 144.368C83.9555 143.169 85.2383 141.904 85.2313 140.476C85.2313 140.472 85.2313 140.47 85.2313 140.47V140.47C85.2313 140.472 85.2313 140.474 85.2313 140.476C85.2329 140.61 85.2956 142.941 87.7593 144.485C89.8374 145.904 91.469 147.876 90.7946 152.125V158.828V163.378V323.588Z" fill="#EEE6DB"/>
</g>
<g filter="url(#filter24_d_246_15197)">
<path d="M196.928 322.638V190.154H157.689V322.638H196.928Z" fill="url(#paint13_linear_246_15197)"/>
</g>
<g filter="url(#filter25_i_246_15197)">
<path d="M168.628 231.396V286.051H188.677V231.396C188.677 231.396 189.634 220.939 178.653 212.729C168.254 219.157 168.628 231.396 168.628 231.396Z" fill="#D2C8BA"/>
</g>
<g filter="url(#filter26_d_246_15197)">
<path d="M146.207 323.588H157.764V163.255V158.705V152.125C157.911 150.075 158.45 147.003 154.802 144.368C153.046 143.169 151.763 141.904 151.77 140.476C151.77 140.472 151.77 140.47 151.77 140.47V140.47C151.77 140.472 151.77 140.474 151.77 140.476C151.768 140.61 151.706 142.941 149.242 144.485C147.164 145.904 145.532 147.876 146.207 152.125V158.828V163.378V323.588Z" fill="#EEE6DB"/>
</g>
<g filter="url(#filter27_d_246_15197)">
<path d="M196.273 353.393H207.831V193.06V188.51V181.93C207.978 179.881 208.516 176.808 204.869 174.174C203.112 172.974 201.829 171.709 201.836 170.281C201.836 170.278 201.836 170.276 201.836 170.275V170.275C201.836 170.277 201.836 170.279 201.836 170.281C201.835 170.415 201.772 172.747 199.308 174.291C197.23 175.71 195.599 177.682 196.273 181.93V188.633V193.183V353.393Z" fill="#EEE6DB"/>
</g>
<g filter="url(#filter28_d_246_15197)">
<path d="M232.656 231.666V304.988H207.648V231.666H232.656Z" fill="url(#paint14_linear_246_15197)"/>
</g>
<g filter="url(#filter29_ii_246_15197)">
<path d="M210.563 251.304C210.563 245.844 214.989 241.417 220.449 241.417C225.909 241.417 230.335 245.844 230.335 251.304V275.985H210.563V251.304Z" fill="#DBCDBC"/>
</g>
<g filter="url(#filter30_i_246_15197)">
<path d="M31.0391 180.716C31.0391 178.588 32.7647 176.862 34.8935 176.862C37.0222 176.862 38.7479 178.588 38.7479 180.716V183.163H31.0391V180.716Z" fill="#D2C8BA"/>
</g>
<g filter="url(#filter31_i_246_15197)">
<path d="M198.282 180.716C198.282 178.588 200.008 176.862 202.137 176.862C204.266 176.862 205.991 178.588 205.991 180.716V183.163H198.282V180.716Z" fill="#D2C8BA"/>
</g>
<g filter="url(#filter32_i_246_15197)">
<path d="M31.0391 196.612C31.0391 194.483 32.7647 192.757 34.8935 192.757C37.0222 192.757 38.7479 194.483 38.7479 196.612V217.405H31.0391V196.612Z" fill="#D2C8BA"/>
</g>
<g filter="url(#filter33_i_246_15197)">
<path d="M198.282 196.612C198.282 194.483 200.008 192.757 202.137 192.757C204.266 192.757 205.991 194.483 205.991 196.612V217.405H198.282V196.612Z" fill="#D2C8BA"/>
</g>
<g filter="url(#filter34_i_246_15197)">
<rect x="44.0125" y="194.388" width="31.6283" height="2.22115" fill="#D2C8BA"/>
</g>
<g filter="url(#filter35_i_246_15197)">
<rect x="161.324" y="194.388" width="31.6283" height="2.22115" fill="#D2C8BA"/>
</g>
<g filter="url(#filter36_i_246_15197)">
<rect x="95.4825" y="194.388" width="48.0121" height="2.22115" fill="#D2C8BA"/>
</g>
<defs>
<filter id="filter0_d_246_15197" x="244.153" y="268.144" width="290.125" height="50.897" filterUnits="userSpaceOnUse" color-interpolation-filters="sRGB">
<feFlood flood-opacity="0" result="BackgroundImageFix"/>
<feColorMatrix in="SourceAlpha" type="matrix" values="0 0 0 0 0 0 0 0 0 0 0 0 0 0 0 0 0 0 127 0" result="hardAlpha"/>
<feOffset dx="0.841065" dy="1.68213"/>
<feGaussianBlur stdDeviation="0.420532"/>
<feComposite in2="hardAlpha" operator="out"/>
<feColorMatrix type="matrix" values="0 0 0 0 0 0 0 0 0 0 0 0 0 0 0 0 0 0 0.2 0"/>
<feBlend mode="normal" in2="BackgroundImageFix" result="effect1_dropShadow_246_15197"/>
<feBlend mode="normal" in="SourceGraphic" in2="effect1_dropShadow_246_15197" result="shape"/>
</filter>
<filter id="filter1_d_246_15197" x="257.314" y="4" width="56.4009" height="326.666" filterUnits="userSpaceOnUse" color-interpolation-filters="sRGB">
<feFlood flood-opacity="0" result="BackgroundImageFix"/>
<feColorMatrix in="SourceAlpha" type="matrix" values="0 0 0 0 0 0 0 0 0 0 0 0 0 0 0 0 0 0 127 0" result="hardAlpha"/>
<feOffset dx="0.841065" dy="1.68213"/>
<feGaussianBlur stdDeviation="0.420532"/>
<feComposite in2="hardAlpha" operator="out"/>
<feColorMatrix type="matrix" values="0 0 0 0 0 0 0 0 0 0 0 0 0 0 0 0 0 0 0.2 0"/>
<feBlend mode="normal" in2="BackgroundImageFix" result="effect1_dropShadow_246_15197"/>
<feBlend mode="normal" in="SourceGraphic" in2="effect1_dropShadow_246_15197" result="shape"/>
</filter>
<filter id="filter2_d_246_15197" x="253.936" y="0.444549" width="71.3109" height="340.735" filterUnits="userSpaceOnUse" color-interpolation-filters="sRGB">
<feFlood flood-opacity="0" result="BackgroundImageFix"/>
<feColorMatrix in="SourceAlpha" type="matrix" values="0 0 0 0 0 0 0 0 0 0 0 0 0 0 0 0 0 0 127 0" result="hardAlpha"/>
<feOffset dx="2.3703" dy="4.7406"/>
<feGaussianBlur stdDeviation="4.14803"/>
<feComposite in2="hardAlpha" operator="out"/>
<feColorMatrix type="matrix" values="0 0 0 0 0.298584 0 0 0 0 0.271237 0 0 0 0 0.230217 0 0 0 0.8 0"/>
<feBlend mode="normal" in2="BackgroundImageFix" result="effect1_dropShadow_246_15197"/>
<feBlend mode="normal" in="SourceGraphic" in2="effect1_dropShadow_246_15197" result="shape"/>
</filter>
<filter id="filter3_d_246_15197" x="261.762" y="112.715" width="58.6128" height="224.521" filterUnits="userSpaceOnUse" color-interpolation-filters="sRGB">
<feFlood flood-opacity="0" result="BackgroundImageFix"/>
<feColorMatrix in="SourceAlpha" type="matrix" values="0 0 0 0 0 0 0 0 0 0 0 0 0 0 0 0 0 0 127 0" result="hardAlpha"/>
<feOffset dx="1.8666" dy="1.8666"/>
<feGaussianBlur stdDeviation="1.8666"/>
<feComposite in2="hardAlpha" operator="out"/>
<feColorMatrix type="matrix" values="0 0 0 0 0 0 0 0 0 0 0 0 0 0 0 0 0 0 0.35 0"/>
<feBlend mode="normal" in2="BackgroundImageFix" result="effect1_dropShadow_246_15197"/>
<feBlend mode="normal" in="SourceGraphic" in2="effect1_dropShadow_246_15197" result="shape"/>
</filter>
<filter id="filter4_d_246_15197" x="346.353" y="117.486" width="84.0485" height="221.208" filterUnits="userSpaceOnUse" color-interpolation-filters="sRGB">
<feFlood flood-opacity="0" result="BackgroundImageFix"/>
<feColorMatrix in="SourceAlpha" type="matrix" values="0 0 0 0 0 0 0 0 0 0 0 0 0 0 0 0 0 0 127 0" result="hardAlpha"/>
<feOffset dx="9.33301" dy="3.7332"/>
<feGaussianBlur stdDeviation="4.6665"/>
<feComposite in2="hardAlpha" operator="out"/>
<feColorMatrix type="matrix" values="0 0 0 0 0 0 0 0 0 0 0 0 0 0 0 0 0 0 0.31 0"/>
<feBlend mode="normal" in2="BackgroundImageFix" result="effect1_dropShadow_246_15197"/>
<feBlend mode="normal" in="SourceGraphic" in2="effect1_dropShadow_246_15197" result="shape"/>
</filter>
<filter id="filter5_d_246_15197" x="349.153" y="117.486" width="84.0485" height="221.208" filterUnits="userSpaceOnUse" color-interpolation-filters="sRGB">
<feFlood flood-opacity="0" result="BackgroundImageFix"/>
<feColorMatrix in="SourceAlpha" type="matrix" values="0 0 0 0 0 0 0 0 0 0 0 0 0 0 0 0 0 0 127 0" result="hardAlpha"/>
<feOffset dx="9.33301" dy="3.7332"/>
<feGaussianBlur stdDeviation="4.6665"/>
<feComposite in2="hardAlpha" operator="out"/>
<feColorMatrix type="matrix" values="0 0 0 0 0 0 0 0 0 0 0 0 0 0 0 0 0 0 0.31 0"/>
<feBlend mode="normal" in2="BackgroundImageFix" result="effect1_dropShadow_246_15197"/>
<feBlend mode="normal" in="SourceGraphic" in2="effect1_dropShadow_246_15197" result="shape"/>
</filter>
<filter id="filter6_i_246_15197" x="361.098" y="167.525" width="43.5914" height="124.362" filterUnits="userSpaceOnUse" color-interpolation-filters="sRGB">
<feFlood flood-opacity="0" result="BackgroundImageFix"/>
<feBlend mode="normal" in="SourceGraphic" in2="BackgroundImageFix" result="shape"/>
<feColorMatrix in="SourceAlpha" type="matrix" values="0 0 0 0 0 0 0 0 0 0 0 0 0 0 0 0 0 0 127 0" result="hardAlpha"/>
<feOffset dx="0.933301" dy="0.933301"/>
<feGaussianBlur stdDeviation="0.699976"/>
<feComposite in2="hardAlpha" operator="arithmetic" k2="-1" k3="1"/>
<feColorMatrix type="matrix" values="0 0 0 0 0 0 0 0 0 0 0 0 0 0 0 0 0 0 0.45 0"/>
<feBlend mode="normal" in2="shape" result="effect1_innerShadow_246_15197"/>
</filter>
<filter id="filter7_d_246_15197" x="422.581" y="67.386" width="62.2762" height="270.342" filterUnits="userSpaceOnUse" color-interpolation-filters="sRGB">
<feFlood flood-opacity="0" result="BackgroundImageFix"/>
<feColorMatrix in="SourceAlpha" type="matrix" values="0 0 0 0 0 0 0 0 0 0 0 0 0 0 0 0 0 0 127 0" result="hardAlpha"/>
<feOffset dx="2.3703" dy="4.7406"/>
<feGaussianBlur stdDeviation="4.14803"/>
<feComposite in2="hardAlpha" operator="out"/>
<feColorMatrix type="matrix" values="0 0 0 0 0.298584 0 0 0 0 0.271237 0 0 0 0 0.230217 0 0 0 0.8 0"/>
<feBlend mode="normal" in2="BackgroundImageFix" result="effect1_dropShadow_246_15197"/>
<feBlend mode="normal" in="SourceGraphic" in2="effect1_dropShadow_246_15197" result="shape"/>
</filter>
<filter id="filter8_i_246_15197" x="438.633" y="122.447" width="23.5431" height="36.4913" filterUnits="userSpaceOnUse" color-interpolation-filters="sRGB">
<feFlood flood-opacity="0" result="BackgroundImageFix"/>
<feBlend mode="normal" in="SourceGraphic" in2="BackgroundImageFix" result="shape"/>
<feColorMatrix in="SourceAlpha" type="matrix" values="0 0 0 0 0 0 0 0 0 0 0 0 0 0 0 0 0 0 127 0" result="hardAlpha"/>
<feOffset dx="0.46665" dy="0.933301"/>
<feGaussianBlur stdDeviation="0.139995"/>
<feComposite in2="hardAlpha" operator="arithmetic" k2="-1" k3="1"/>
<feColorMatrix type="matrix" values="0 0 0 0 0 0 0 0 0 0 0 0 0 0 0 0 0 0 0.35 0"/>
<feBlend mode="normal" in2="shape" result="effect1_innerShadow_246_15197"/>
</filter>
<filter id="filter9_i_246_15197" x="436.894" y="216.757" width="7.69592" height="90.6657" filterUnits="userSpaceOnUse" color-interpolation-filters="sRGB">
<feFlood flood-opacity="0" result="BackgroundImageFix"/>
<feBlend mode="normal" in="SourceGraphic" in2="BackgroundImageFix" result="shape"/>
<feColorMatrix in="SourceAlpha" type="matrix" values="0 0 0 0 0 0 0 0 0 0 0 0 0 0 0 0 0 0 127 0" result="hardAlpha"/>
<feOffset dx="0.933301" dy="0.46665"/>
<feGaussianBlur stdDeviation="0.420532"/>
<feComposite in2="hardAlpha" operator="arithmetic" k2="-1" k3="1"/>
<feColorMatrix type="matrix" values="0 0 0 0 0 0 0 0 0 0 0 0 0 0 0 0 0 0 0.35 0"/>
<feBlend mode="normal" in2="shape" result="effect1_innerShadow_246_15197"/>
</filter>
<filter id="filter10_d_246_15197" x="477.981" y="67.458" width="62.6634" height="270.27" filterUnits="userSpaceOnUse" color-interpolation-filters="sRGB">
<feFlood flood-opacity="0" result="BackgroundImageFix"/>
<feColorMatrix in="SourceAlpha" type="matrix" values="0 0 0 0 0 0 0 0 0 0 0 0 0 0 0 0 0 0 127 0" result="hardAlpha"/>
<feOffset dx="2.3703" dy="4.7406"/>
<feGaussianBlur stdDeviation="4.14803"/>
<feComposite in2="hardAlpha" operator="out"/>
<feColorMatrix type="matrix" values="0 0 0 0 0.298584 0 0 0 0 0.271237 0 0 0 0 0.230217 0 0 0 0.8 0"/>
<feBlend mode="normal" in2="BackgroundImageFix" result="effect1_dropShadow_246_15197"/>
<feBlend mode="normal" in="SourceGraphic" in2="effect1_dropShadow_246_15197" result="shape"/>
</filter>
<filter id="filter11_d_246_15197" x="480.781" y="67.386" width="62.6635" height="270.342" filterUnits="userSpaceOnUse" color-interpolation-filters="sRGB">
<feFlood flood-opacity="0" result="BackgroundImageFix"/>
<feColorMatrix in="SourceAlpha" type="matrix" values="0 0 0 0 0 0 0 0 0 0 0 0 0 0 0 0 0 0 127 0" result="hardAlpha"/>
<feOffset dx="2.3703" dy="4.7406"/>
<feGaussianBlur stdDeviation="4.14803"/>
<feComposite in2="hardAlpha" operator="out"/>
<feColorMatrix type="matrix" values="0 0 0 0 0.298584 0 0 0 0 0.271237 0 0 0 0 0.230217 0 0 0 0.8 0"/>
<feBlend mode="normal" in2="BackgroundImageFix" result="effect1_dropShadow_246_15197"/>
<feBlend mode="normal" in="SourceGraphic" in2="effect1_dropShadow_246_15197" result="shape"/>
</filter>
<filter id="filter12_i_246_15197" x="497.122" y="131.198" width="26.8023" height="34.7031" filterUnits="userSpaceOnUse" color-interpolation-filters="sRGB">
<feFlood flood-opacity="0" result="BackgroundImageFix"/>
<feBlend mode="normal" in="SourceGraphic" in2="BackgroundImageFix" result="shape"/>
<feColorMatrix in="SourceAlpha" type="matrix" values="0 0 0 0 0 0 0 0 0 0 0 0 0 0 0 0 0 0 127 0" result="hardAlpha"/>
<feOffset dx="0.46665" dy="-0.46665"/>
<feGaussianBlur stdDeviation="0.420532"/>
<feComposite in2="hardAlpha" operator="arithmetic" k2="-1" k3="1"/>
<feColorMatrix type="matrix" values="0 0 0 0 0 0 0 0 0 0 0 0 0 0 0 0 0 0 0.35 0"/>
<feBlend mode="normal" in2="shape" result="effect1_innerShadow_246_15197"/>
</filter>
<filter id="filter13_i_246_15197" x="518.564" y="224.705" width="7.69592" height="90.6657" filterUnits="userSpaceOnUse" color-interpolation-filters="sRGB">
<feFlood flood-opacity="0" result="BackgroundImageFix"/>
<feBlend mode="normal" in="SourceGraphic" in2="BackgroundImageFix" result="shape"/>
<feColorMatrix in="SourceAlpha" type="matrix" values="0 0 0 0 0 0 0 0 0 0 0 0 0 0 0 0 0 0 127 0" result="hardAlpha"/>
<feOffset dx="0.933301" dy="0.46665"/>
<feGaussianBlur stdDeviation="0.420532"/>
<feComposite in2="hardAlpha" operator="arithmetic" k2="-1" k3="1"/>
<feColorMatrix type="matrix" values="0 0 0 0 0 0 0 0 0 0 0 0 0 0 0 0 0 0 0.35 0"/>
<feBlend mode="normal" in2="shape" result="effect1_innerShadow_246_15197"/>
</filter>
<filter id="filter14_i_246_15197" x="93.7198" y="196.004" width="49.5644" height="106.603" filterUnits="userSpaceOnUse" color-interpolation-filters="sRGB">
<feFlood flood-opacity="0" result="BackgroundImageFix"/>
<feBlend mode="normal" in="SourceGraphic" in2="BackgroundImageFix" result="shape"/>
<feColorMatrix in="SourceAlpha" type="matrix" values="0 0 0 0 0 0 0 0 0 0 0 0 0 0 0 0 0 0 127 0" result="hardAlpha"/>
<feOffset dx="0.27999"/>
<feGaussianBlur stdDeviation="0.46665"/>
<feComposite in2="hardAlpha" operator="arithmetic" k2="-1" k3="1"/>
<feColorMatrix type="matrix" values="0 0 0 0 0 0 0 0 0 0 0 0 0 0 0 0 0 0 0.63 0"/>
<feBlend mode="normal" in2="shape" result="effect1_innerShadow_246_15197"/>
</filter>
<filter id="filter15_d_246_15197" x="2.47876" y="139.542" width="232.044" height="216.651" filterUnits="userSpaceOnUse" color-interpolation-filters="sRGB">
<feFlood flood-opacity="0" result="BackgroundImageFix"/>
<feColorMatrix in="SourceAlpha" type="matrix" values="0 0 0 0 0 0 0 0 0 0 0 0 0 0 0 0 0 0 127 0" result="hardAlpha"/>
<feOffset dx="1.8666" dy="0.933301"/>
<feGaussianBlur stdDeviation="0.933301"/>
<feColorMatrix type="matrix" values="0 0 0 0 0 0 0 0 0 0 0 0 0 0 0 0 0 0 0.21 0"/>
<feBlend mode="normal" in2="BackgroundImageFix" result="effect1_dropShadow_246_15197"/>
<feBlend mode="normal" in="SourceGraphic" in2="effect1_dropShadow_246_15197" result="shape"/>
</filter>
<filter id="filter16_d_246_15197" x="100.705" y="168.157" width="35.9211" height="29.4076" filterUnits="userSpaceOnUse" color-interpolation-filters="sRGB">
<feFlood flood-opacity="0" result="BackgroundImageFix"/>
<feColorMatrix in="SourceAlpha" type="matrix" values="0 0 0 0 0 0 0 0 0 0 0 0 0 0 0 0 0 0 127 0" result="hardAlpha"/>
<feOffset dy="0.933301"/>
<feGaussianBlur stdDeviation="2.33325"/>
<feComposite in2="hardAlpha" operator="out"/>
<feColorMatrix type="matrix" values="0 0 0 0 0 0 0 0 0 0 0 0 0 0 0 0 0 0 0.51 0"/>
<feBlend mode="normal" in2="BackgroundImageFix" result="effect1_dropShadow_246_15197"/>
<feBlend mode="normal" in="SourceGraphic" in2="effect1_dropShadow_246_15197" result="shape"/>
</filter>
<filter id="filter17_d_246_15197" x="35.4067" y="186.421" width="48.5717" height="141.817" filterUnits="userSpaceOnUse" color-interpolation-filters="sRGB">
<feFlood flood-opacity="0" result="BackgroundImageFix"/>
<feColorMatrix in="SourceAlpha" type="matrix" values="0 0 0 0 0 0 0 0 0 0 0 0 0 0 0 0 0 0 127 0" result="hardAlpha"/>
<feOffset dy="0.933301"/>
<feGaussianBlur stdDeviation="2.33325"/>
<feComposite in2="hardAlpha" operator="out"/>
<feColorMatrix type="matrix" values="0 0 0 0 0 0 0 0 0 0 0 0 0 0 0 0 0 0 0.51 0"/>
<feBlend mode="normal" in2="BackgroundImageFix" result="effect1_dropShadow_246_15197"/>
<feBlend mode="normal" in="SourceGraphic" in2="effect1_dropShadow_246_15197" result="shape"/>
</filter>
<filter id="filter18_d_246_15197" x="29.0554" y="169.321" width="15.5601" height="186.873" filterUnits="userSpaceOnUse" color-interpolation-filters="sRGB">
<feFlood flood-opacity="0" result="BackgroundImageFix"/>
<feColorMatrix in="SourceAlpha" type="matrix" values="0 0 0 0 0 0 0 0 0 0 0 0 0 0 0 0 0 0 127 0" result="hardAlpha"/>
<feOffset dx="1.8666" dy="0.933301"/>
<feGaussianBlur stdDeviation="0.933301"/>
<feColorMatrix type="matrix" values="0 0 0 0 0 0 0 0 0 0 0 0 0 0 0 0 0 0 0.21 0"/>
<feBlend mode="normal" in2="BackgroundImageFix" result="effect1_dropShadow_246_15197"/>
<feBlend mode="normal" in="SourceGraphic" in2="effect1_dropShadow_246_15197" result="shape"/>
</filter>
<filter id="filter19_d_246_15197" x="0.612011" y="226.906" width="36.0205" height="84.3348" filterUnits="userSpaceOnUse" color-interpolation-filters="sRGB">
<feFlood flood-opacity="0" result="BackgroundImageFix"/>
<feColorMatrix in="SourceAlpha" type="matrix" values="0 0 0 0 0 0 0 0 0 0 0 0 0 0 0 0 0 0 127 0" result="hardAlpha"/>
<feOffset dx="1.77327" dy="0.746641"/>
<feGaussianBlur stdDeviation="2.75324"/>
<feComposite in2="hardAlpha" operator="out"/>
<feColorMatrix type="matrix" values="0 0 0 0 0 0 0 0 0 0 0 0 0 0 0 0 0 0 0.49 0"/>
<feBlend mode="normal" in2="BackgroundImageFix" result="effect1_dropShadow_246_15197"/>
<feBlend mode="normal" in="SourceGraphic" in2="effect1_dropShadow_246_15197" result="shape"/>
</filter>
<filter id="filter20_ii_246_15197" x="7.08325" y="241.417" width="21.6391" height="38.3009" filterUnits="userSpaceOnUse" color-interpolation-filters="sRGB">
<feFlood flood-opacity="0" result="BackgroundImageFix"/>
<feBlend mode="normal" in="SourceGraphic" in2="BackgroundImageFix" result="shape"/>
<feColorMatrix in="SourceAlpha" type="matrix" values="0 0 0 0 0 0 0 0 0 0 0 0 0 0 0 0 0 0 127 0" result="hardAlpha"/>
<feOffset dx="-1.8666" dy="1.8666"/>
<feComposite in2="hardAlpha" operator="arithmetic" k2="-1" k3="1"/>
<feColorMatrix type="matrix" values="0 0 0 0 0.992157 0 0 0 0 1 0 0 0 0 0.54902 0 0 0 1 0"/>
<feBlend mode="normal" in2="shape" result="effect1_innerShadow_246_15197"/>
<feColorMatrix in="SourceAlpha" type="matrix" values="0 0 0 0 0 0 0 0 0 0 0 0 0 0 0 0 0 0 127 0" result="hardAlpha"/>
<feOffset dx="1.8666" dy="3.7332"/>
<feGaussianBlur stdDeviation="1.8666"/>
<feComposite in2="hardAlpha" operator="arithmetic" k2="-1" k3="1"/>
<feColorMatrix type="matrix" values="0 0 0 0 0 0 0 0 0 0 0 0 0 0 0 0 0 0 0.45 0"/>
<feBlend mode="normal" in2="effect1_innerShadow_246_15197" result="effect2_innerShadow_246_15197"/>
</filter>
<filter id="filter21_i_246_15197" x="50.0972" y="211.796" width="21.9385" height="76.1218" filterUnits="userSpaceOnUse" color-interpolation-filters="sRGB">
<feFlood flood-opacity="0" result="BackgroundImageFix"/>
<feBlend mode="normal" in="SourceGraphic" in2="BackgroundImageFix" result="shape"/>
<feColorMatrix in="SourceAlpha" type="matrix" values="0 0 0 0 0 0 0 0 0 0 0 0 0 0 0 0 0 0 127 0" result="hardAlpha"/>
<feOffset dx="1.8666" dy="2.7999"/>
<feGaussianBlur stdDeviation="1.39995"/>
<feComposite in2="hardAlpha" operator="arithmetic" k2="-1" k3="1"/>
<feColorMatrix type="matrix" values="0 0 0 0 0.298584 0 0 0 0 0.271237 0 0 0 0 0.230217 0 0 0 0.72 0"/>
<feBlend mode="normal" in2="shape" result="effect1_innerShadow_246_15197"/>
</filter>
<filter id="filter22_d_246_15197" x="89.8609" y="187.271" width="64.744" height="142.104" filterUnits="userSpaceOnUse" color-interpolation-filters="sRGB">
<feFlood flood-opacity="0" result="BackgroundImageFix"/>
<feColorMatrix in="SourceAlpha" type="matrix" values="0 0 0 0 0 0 0 0 0 0 0 0 0 0 0 0 0 0 127 0" result="hardAlpha"/>
<feOffset dx="3.7332" dy="1.8666"/>
<feGaussianBlur stdDeviation="2.33325"/>
<feComposite in2="hardAlpha" operator="out"/>
<feColorMatrix type="matrix" values="0 0 0 0 0 0 0 0 0 0 0 0 0 0 0 0 0 0 0.52 0"/>
<feBlend mode="normal" in2="BackgroundImageFix" result="effect1_dropShadow_246_15197"/>
<feBlend mode="normal" in="SourceGraphic" in2="effect1_dropShadow_246_15197" result="shape"/>
</filter>
<filter id="filter23_d_246_15197" x="79.1219" y="139.536" width="15.5601" height="186.851" filterUnits="userSpaceOnUse" color-interpolation-filters="sRGB">
<feFlood flood-opacity="0" result="BackgroundImageFix"/>
<feColorMatrix in="SourceAlpha" type="matrix" values="0 0 0 0 0 0 0 0 0 0 0 0 0 0 0 0 0 0 127 0" result="hardAlpha"/>
<feOffset dx="1.8666" dy="0.933301"/>
<feGaussianBlur stdDeviation="0.933301"/>
<feColorMatrix type="matrix" values="0 0 0 0 0 0 0 0 0 0 0 0 0 0 0 0 0 0 0.21 0"/>
<feBlend mode="normal" in2="BackgroundImageFix" result="effect1_dropShadow_246_15197"/>
<feBlend mode="normal" in="SourceGraphic" in2="effect1_dropShadow_246_15197" result="shape"/>
</filter>
<filter id="filter24_d_246_15197" x="153.023" y="186.421" width="48.5717" height="141.817" filterUnits="userSpaceOnUse" color-interpolation-filters="sRGB">
<feFlood flood-opacity="0" result="BackgroundImageFix"/>
<feColorMatrix in="SourceAlpha" type="matrix" values="0 0 0 0 0 0 0 0 0 0 0 0 0 0 0 0 0 0 127 0" result="hardAlpha"/>
<feOffset dy="0.933301"/>
<feGaussianBlur stdDeviation="2.33325"/>
<feComposite in2="hardAlpha" operator="out"/>
<feColorMatrix type="matrix" values="0 0 0 0 0 0 0 0 0 0 0 0 0 0 0 0 0 0 0.51 0"/>
<feBlend mode="normal" in2="BackgroundImageFix" result="effect1_dropShadow_246_15197"/>
<feBlend mode="normal" in="SourceGraphic" in2="effect1_dropShadow_246_15197" result="shape"/>
</filter>
<filter id="filter25_i_246_15197" x="168.626" y="212.729" width="21.9385" height="76.1218" filterUnits="userSpaceOnUse" color-interpolation-filters="sRGB">
<feFlood flood-opacity="0" result="BackgroundImageFix"/>
<feBlend mode="normal" in="SourceGraphic" in2="BackgroundImageFix" result="shape"/>
<feColorMatrix in="SourceAlpha" type="matrix" values="0 0 0 0 0 0 0 0 0 0 0 0 0 0 0 0 0 0 127 0" result="hardAlpha"/>
<feOffset dx="1.8666" dy="2.7999"/>
<feGaussianBlur stdDeviation="1.39995"/>
<feComposite in2="hardAlpha" operator="arithmetic" k2="-1" k3="1"/>
<feColorMatrix type="matrix" values="0 0 0 0 0.298584 0 0 0 0 0.271237 0 0 0 0 0.230217 0 0 0 0.72 0"/>
<feBlend mode="normal" in2="shape" result="effect1_innerShadow_246_15197"/>
</filter>
<filter id="filter26_d_246_15197" x="146.052" y="139.536" width="15.5602" height="186.851" filterUnits="userSpaceOnUse" color-interpolation-filters="sRGB">
<feFlood flood-opacity="0" result="BackgroundImageFix"/>
<feColorMatrix in="SourceAlpha" type="matrix" values="0 0 0 0 0 0 0 0 0 0 0 0 0 0 0 0 0 0 127 0" result="hardAlpha"/>
<feOffset dx="1.8666" dy="0.933301"/>
<feGaussianBlur stdDeviation="0.933301"/>
<feColorMatrix type="matrix" values="0 0 0 0 0 0 0 0 0 0 0 0 0 0 0 0 0 0 0.21 0"/>
<feBlend mode="normal" in2="BackgroundImageFix" result="effect1_dropShadow_246_15197"/>
<feBlend mode="normal" in="SourceGraphic" in2="effect1_dropShadow_246_15197" result="shape"/>
</filter>
<filter id="filter27_d_246_15197" x="196.119" y="169.342" width="15.5601" height="186.851" filterUnits="userSpaceOnUse" color-interpolation-filters="sRGB">
<feFlood flood-opacity="0" result="BackgroundImageFix"/>
<feColorMatrix in="SourceAlpha" type="matrix" values="0 0 0 0 0 0 0 0 0 0 0 0 0 0 0 0 0 0 127 0" result="hardAlpha"/>
<feOffset dx="1.8666" dy="0.933301"/>
<feGaussianBlur stdDeviation="0.933301"/>
<feColorMatrix type="matrix" values="0 0 0 0 0 0 0 0 0 0 0 0 0 0 0 0 0 0 0.21 0"/>
<feBlend mode="normal" in2="BackgroundImageFix" result="effect1_dropShadow_246_15197"/>
<feBlend mode="normal" in="SourceGraphic" in2="effect1_dropShadow_246_15197" result="shape"/>
</filter>
<filter id="filter28_d_246_15197" x="203.915" y="226.906" width="36.0205" height="84.3348" filterUnits="userSpaceOnUse" color-interpolation-filters="sRGB">
<feFlood flood-opacity="0" result="BackgroundImageFix"/>
<feColorMatrix in="SourceAlpha" type="matrix" values="0 0 0 0 0 0 0 0 0 0 0 0 0 0 0 0 0 0 127 0" result="hardAlpha"/>
<feOffset dx="1.77327" dy="0.746641"/>
<feGaussianBlur stdDeviation="2.75324"/>
<feComposite in2="hardAlpha" operator="out"/>
<feColorMatrix type="matrix" values="0 0 0 0 0 0 0 0 0 0 0 0 0 0 0 0 0 0 0.49 0"/>
<feBlend mode="normal" in2="BackgroundImageFix" result="effect1_dropShadow_246_15197"/>
<feBlend mode="normal" in="SourceGraphic" in2="effect1_dropShadow_246_15197" result="shape"/>
</filter>
<filter id="filter29_ii_246_15197" x="210.563" y="241.417" width="21.6391" height="38.3009" filterUnits="userSpaceOnUse" color-interpolation-filters="sRGB">
<feFlood flood-opacity="0" result="BackgroundImageFix"/>
<feBlend mode="normal" in="SourceGraphic" in2="BackgroundImageFix" result="shape"/>
<feColorMatrix in="SourceAlpha" type="matrix" values="0 0 0 0 0 0 0 0 0 0 0 0 0 0 0 0 0 0 127 0" result="hardAlpha"/>
<feOffset dx="-1.8666" dy="1.8666"/>
<feComposite in2="hardAlpha" operator="arithmetic" k2="-1" k3="1"/>
<feColorMatrix type="matrix" values="0 0 0 0 0.992157 0 0 0 0 1 0 0 0 0 0.54902 0 0 0 1 0"/>
<feBlend mode="normal" in2="shape" result="effect1_innerShadow_246_15197"/>
<feColorMatrix in="SourceAlpha" type="matrix" values="0 0 0 0 0 0 0 0 0 0 0 0 0 0 0 0 0 0 127 0" result="hardAlpha"/>
<feOffset dx="1.8666" dy="3.7332"/>
<feGaussianBlur stdDeviation="1.8666"/>
<feComposite in2="hardAlpha" operator="arithmetic" k2="-1" k3="1"/>
<feColorMatrix type="matrix" values="0 0 0 0 0 0 0 0 0 0 0 0 0 0 0 0 0 0 0.45 0"/>
<feBlend mode="normal" in2="effect1_innerShadow_246_15197" result="effect2_innerShadow_246_15197"/>
</filter>
<filter id="filter30_i_246_15197" x="31.0391" y="176.862" width="7.98897" height="6.30066" filterUnits="userSpaceOnUse" color-interpolation-filters="sRGB">
<feFlood flood-opacity="0" result="BackgroundImageFix"/>
<feBlend mode="normal" in="SourceGraphic" in2="BackgroundImageFix" result="shape"/>
<feColorMatrix in="SourceAlpha" type="matrix" values="0 0 0 0 0 0 0 0 0 0 0 0 0 0 0 0 0 0 127 0" result="hardAlpha"/>
<feOffset dx="0.27999"/>
<feGaussianBlur stdDeviation="0.46665"/>
<feComposite in2="hardAlpha" operator="arithmetic" k2="-1" k3="1"/>
<feColorMatrix type="matrix" values="0 0 0 0 0 0 0 0 0 0 0 0 0 0 0 0 0 0 0.63 0"/>
<feBlend mode="normal" in2="shape" result="effect1_innerShadow_246_15197"/>
</filter>
<filter id="filter31_i_246_15197" x="198.282" y="176.862" width="7.98885" height="6.30066" filterUnits="userSpaceOnUse" color-interpolation-filters="sRGB">
<feFlood flood-opacity="0" result="BackgroundImageFix"/>
<feBlend mode="normal" in="SourceGraphic" in2="BackgroundImageFix" result="shape"/>
<feColorMatrix in="SourceAlpha" type="matrix" values="0 0 0 0 0 0 0 0 0 0 0 0 0 0 0 0 0 0 127 0" result="hardAlpha"/>
<feOffset dx="0.27999"/>
<feGaussianBlur stdDeviation="0.46665"/>
<feComposite in2="hardAlpha" operator="arithmetic" k2="-1" k3="1"/>
<feColorMatrix type="matrix" values="0 0 0 0 0 0 0 0 0 0 0 0 0 0 0 0 0 0 0.63 0"/>
<feBlend mode="normal" in2="shape" result="effect1_innerShadow_246_15197"/>
</filter>
<filter id="filter32_i_246_15197" x="31.0391" y="192.757" width="7.98897" height="24.6477" filterUnits="userSpaceOnUse" color-interpolation-filters="sRGB">
<feFlood flood-opacity="0" result="BackgroundImageFix"/>
<feBlend mode="normal" in="SourceGraphic" in2="BackgroundImageFix" result="shape"/>
<feColorMatrix in="SourceAlpha" type="matrix" values="0 0 0 0 0 0 0 0 0 0 0 0 0 0 0 0 0 0 127 0" result="hardAlpha"/>
<feOffset dx="0.27999"/>
<feGaussianBlur stdDeviation="0.46665"/>
<feComposite in2="hardAlpha" operator="arithmetic" k2="-1" k3="1"/>
<feColorMatrix type="matrix" values="0 0 0 0 0 0 0 0 0 0 0 0 0 0 0 0 0 0 0.63 0"/>
<feBlend mode="normal" in2="shape" result="effect1_innerShadow_246_15197"/>
</filter>
<filter id="filter33_i_246_15197" x="198.282" y="192.757" width="7.98885" height="24.6477" filterUnits="userSpaceOnUse" color-interpolation-filters="sRGB">
<feFlood flood-opacity="0" result="BackgroundImageFix"/>
<feBlend mode="normal" in="SourceGraphic" in2="BackgroundImageFix" result="shape"/>
<feColorMatrix in="SourceAlpha" type="matrix" values="0 0 0 0 0 0 0 0 0 0 0 0 0 0 0 0 0 0 127 0" result="hardAlpha"/>
<feOffset dx="0.27999"/>
<feGaussianBlur stdDeviation="0.46665"/>
<feComposite in2="hardAlpha" operator="arithmetic" k2="-1" k3="1"/>
<feColorMatrix type="matrix" values="0 0 0 0 0 0 0 0 0 0 0 0 0 0 0 0 0 0 0.63 0"/>
<feBlend mode="normal" in2="shape" result="effect1_innerShadow_246_15197"/>
</filter>
<filter id="filter34_i_246_15197" x="44.0125" y="194.388" width="31.9084" height="2.59451" filterUnits="userSpaceOnUse" color-interpolation-filters="sRGB">
<feFlood flood-opacity="0" result="BackgroundImageFix"/>
<feBlend mode="normal" in="SourceGraphic" in2="BackgroundImageFix" result="shape"/>
<feColorMatrix in="SourceAlpha" type="matrix" values="0 0 0 0 0 0 0 0 0 0 0 0 0 0 0 0 0 0 127 0" result="hardAlpha"/>
<feOffset dx="0.27999" dy="0.37332"/>
<feGaussianBlur stdDeviation="0.46665"/>
<feComposite in2="hardAlpha" operator="arithmetic" k2="-1" k3="1"/>
<feColorMatrix type="matrix" values="0 0 0 0 0 0 0 0 0 0 0 0 0 0 0 0 0 0 0.3 0"/>
<feBlend mode="normal" in2="shape" result="effect1_innerShadow_246_15197"/>
</filter>
<filter id="filter35_i_246_15197" x="161.324" y="194.388" width="31.9084" height="2.59451" filterUnits="userSpaceOnUse" color-interpolation-filters="sRGB">
<feFlood flood-opacity="0" result="BackgroundImageFix"/>
<feBlend mode="normal" in="SourceGraphic" in2="BackgroundImageFix" result="shape"/>
<feColorMatrix in="SourceAlpha" type="matrix" values="0 0 0 0 0 0 0 0 0 0 0 0 0 0 0 0 0 0 127 0" result="hardAlpha"/>
<feOffset dx="0.27999" dy="0.37332"/>
<feGaussianBlur stdDeviation="0.46665"/>
<feComposite in2="hardAlpha" operator="arithmetic" k2="-1" k3="1"/>
<feColorMatrix type="matrix" values="0 0 0 0 0 0 0 0 0 0 0 0 0 0 0 0 0 0 0.3 0"/>
<feBlend mode="normal" in2="shape" result="effect1_innerShadow_246_15197"/>
</filter>
<filter id="filter36_i_246_15197" x="95.4825" y="194.388" width="48.2921" height="2.59451" filterUnits="userSpaceOnUse" color-interpolation-filters="sRGB">
<feFlood flood-opacity="0" result="BackgroundImageFix"/>
<feBlend mode="normal" in="SourceGraphic" in2="BackgroundImageFix" result="shape"/>
<feColorMatrix in="SourceAlpha" type="matrix" values="0 0 0 0 0 0 0 0 0 0 0 0 0 0 0 0 0 0 127 0" result="hardAlpha"/>
<feOffset dx="0.27999" dy="0.37332"/>
<feGaussianBlur stdDeviation="0.46665"/>
<feComposite in2="hardAlpha" operator="arithmetic" k2="-1" k3="1"/>
<feColorMatrix type="matrix" values="0 0 0 0 0 0 0 0 0 0 0 0 0 0 0 0 0 0 0.3 0"/>
<feBlend mode="normal" in2="shape" result="effect1_innerShadow_246_15197"/>
</filter>
<linearGradient id="paint0_linear_246_15197" x1="392.178" y1="292.506" x2="392.099" y2="329.339" gradientUnits="userSpaceOnUse">
<stop stop-color="#EDE5DA"/>
<stop offset="1" stop-color="#716557"/>
</linearGradient>
<linearGradient id="paint1_linear_246_15197" x1="290.06" y1="192.144" x2="298.179" y2="363.663" gradientUnits="userSpaceOnUse">
<stop stop-color="#EDE5DA"/>
<stop offset="1" stop-color="#CBAD89"/>
</linearGradient>
<linearGradient id="paint2_linear_246_15197" x1="381.844" y1="123.086" x2="381.844" y2="325.628" gradientUnits="userSpaceOnUse">
<stop stop-color="#E9D9C6"/>
<stop offset="1" stop-color="#D6C3AD"/>
</linearGradient>
<linearGradient id="paint3_linear_246_15197" x1="453.72" y1="218.193" x2="459.678" y2="352.469" gradientUnits="userSpaceOnUse">
<stop stop-color="#EDE5DA"/>
<stop offset="1" stop-color="#CBAD89"/>
</linearGradient>
<linearGradient id="paint4_linear_246_15197" x1="449.958" y1="141.248" x2="450.539" y2="169.662" gradientUnits="userSpaceOnUse">
<stop stop-color="#EEE5DB"/>
<stop offset="1" stop-color="#716557"/>
</linearGradient>
<linearGradient id="paint5_linear_246_15197" x1="440.231" y1="263.587" x2="452.122" y2="332.338" gradientUnits="userSpaceOnUse">
<stop stop-color="#EEE5DB"/>
<stop offset="1" stop-color="#716557"/>
</linearGradient>
<linearGradient id="paint6_linear_246_15197" x1="507.352" y1="218.193" x2="501.443" y2="352.473" gradientUnits="userSpaceOnUse">
<stop stop-color="#EDE5DA"/>
<stop offset="1" stop-color="#CBAD89"/>
</linearGradient>
<linearGradient id="paint7_linear_246_15197" x1="509.942" y1="149.44" x2="510.401" y2="176.308" gradientUnits="userSpaceOnUse">
<stop stop-color="#EEE5DB"/>
<stop offset="1" stop-color="#716557"/>
</linearGradient>
<linearGradient id="paint8_linear_246_15197" x1="521.901" y1="271.535" x2="533.792" y2="340.286" gradientUnits="userSpaceOnUse">
<stop stop-color="#EEE5DB"/>
<stop offset="1" stop-color="#716557"/>
</linearGradient>
<linearGradient id="paint9_linear_246_15197" x1="118.665" y1="171.89" x2="118.665" y2="191.965" gradientUnits="userSpaceOnUse">
<stop stop-color="#E9D9C6"/>
<stop offset="1" stop-color="#D6C3AD"/>
</linearGradient>
<linearGradient id="paint10_linear_246_15197" x1="59.6926" y1="190.154" x2="59.6926" y2="322.638" gradientUnits="userSpaceOnUse">
<stop stop-color="#E9D9C6"/>
<stop offset="1" stop-color="#D6C3AD"/>
</linearGradient>
<linearGradient id="paint11_linear_246_15197" x1="16.5192" y1="268.591" x2="18.6035" y2="324.344" gradientUnits="userSpaceOnUse">
<stop stop-color="#EDE5DA"/>
<stop offset="1" stop-color="#716557"/>
</linearGradient>
<linearGradient id="paint12_linear_246_15197" x1="118.5" y1="190.07" x2="118.5" y2="322.841" gradientUnits="userSpaceOnUse">
<stop stop-color="#E9D9C6"/>
<stop offset="1" stop-color="#D6C3AD"/>
</linearGradient>
<linearGradient id="paint13_linear_246_15197" x1="177.309" y1="190.154" x2="177.309" y2="322.638" gradientUnits="userSpaceOnUse">
<stop stop-color="#E9D9C6"/>
<stop offset="1" stop-color="#D6C3AD"/>
</linearGradient>
<linearGradient id="paint14_linear_246_15197" x1="220.482" y1="268.591" x2="218.398" y2="324.344" gradientUnits="userSpaceOnUse">
<stop stop-color="#EDE5DA"/>
<stop offset="1" stop-color="#716557"/>
</linearGradient>
</defs>
</svg>
