<svg width="100" height="114" viewBox="0 0 100 114" fill="none" xmlns="http://www.w3.org/2000/svg">
<g filter="url(#filter0_dddd_4_194)">
<g clip-path="url(#clip0_4_194)">
<rect x="22.6176" y="6.10664" width="54.5346" height="87.0598" rx="3.80012" fill="url(#paint0_linear_4_194)" stroke="url(#paint1_linear_4_194)" stroke-width="0.00869232"/>
<rect x="22.2211" y="5.89766" width="54.5346" height="87.0598" rx="3.80012" fill="url(#paint2_linear_4_194)" stroke="url(#paint3_linear_4_194)" stroke-width="0.00869232"/>
<g filter="url(#filter1_f_4_194)">
<path d="M31.256 10.2119C30.5569 8.11101 32.1192 5.94196 34.3333 5.93945L72.9506 5.89568C75.0535 5.89329 76.7594 7.5973 76.7594 9.70014V88.0325C76.7594 90.7445 74.5443 92.9342 71.8324 92.9029L62.1931 92.7914C60.1166 92.7674 58.2837 91.4294 57.628 89.459L31.256 10.2119Z" fill="url(#paint4_linear_4_194)"/>
</g>
</g>
</g>
<g filter="url(#filter2_d_4_194)">
<rect x="54.2305" y="18.7156" width="11.1818" height="14.3441" rx="2.02219" fill="url(#paint5_linear_4_194)"/>
<rect x="58.219" y="24.3956" width="3.24467" height="3.06688" stroke="#EFD0A0" stroke-width="0.340436"/>
<path d="M56.7656 18.7151L56.8246 22.661L58.3327 24.5094H61.3488L62.8569 22.661L62.8697 18.6355" stroke="#EFD0A0" stroke-width="0.340436"/>
<path d="M59.7993 24.5554L59.7909 18.6833" stroke="#EFD0A0" stroke-width="0.340436"/>
<path d="M61.5352 25.9031L65.4508 25.9777" stroke="#EFD0A0" stroke-width="0.340436"/>
<path d="M54.2188 25.8309L58.2992 25.9019" stroke="#EFD0A0" stroke-width="0.340436"/>
<path d="M56.8047 33.0808L56.8254 29.3605L58.3335 27.512H61.3497L62.8578 29.3605L62.8525 33.0171" stroke="#EFD0A0" stroke-width="0.340436"/>
<path d="M59.7988 27.4656L59.8002 33.0563" stroke="#EFD0A0" stroke-width="0.340436"/>
</g>
<path d="M26.7404 84.337C30.9415 84.6029 32.855 80.8394 32.7338 78.8888C32.5812 77.0879 29.562 75.9264 28.3641 79.608C27.5608 82.4884 27.7601 85.9377 32.3666 86.6218C35.7233 86.9426 35.6593 82.2976 31.7575 82.5249" stroke="#DDDADA" stroke-width="1.50225" stroke-linecap="square"/>
<g clip-path="url(#clip1_4_194)">
<path d="M63.1241 40.3399C63.2614 40.3415 63.3947 40.4126 63.4691 40.5398C63.5828 40.7326 63.518 40.9809 63.3252 41.0945C62.1909 41.7618 60.8922 42.1065 59.5694 42.0918C58.2466 42.0771 56.968 41.7071 55.8528 41.0214C55.6621 40.9044 55.6025 40.6547 55.7196 40.464C55.8366 40.2733 56.0863 40.2137 56.277 40.3308C57.2676 40.9397 58.4092 41.2682 59.5784 41.2812C60.7476 41.2942 61.9072 40.9879 62.9144 40.3955C62.9805 40.3567 63.0528 40.3387 63.1241 40.3395L63.1241 40.3399Z" fill="#CDCACA"/>
<path d="M56.7285 38.6682C56.8068 38.669 56.8852 38.6923 56.9544 38.7404C57.733 39.2793 58.6476 39.5694 59.5983 39.58C60.5491 39.5905 61.4393 39.3294 62.2209 38.8249C62.4089 38.7035 62.6598 38.7576 62.7812 38.9456C62.9026 39.1337 62.8485 39.3845 62.6604 39.5059C61.745 40.0965 60.6831 40.4027 59.5893 40.3905C58.4956 40.3784 57.4054 40.0382 56.4929 39.4069C56.3089 39.2798 56.2628 39.0274 56.3904 38.8429C56.4699 38.7281 56.5985 38.6667 56.7285 38.6682Z" fill="#CDCACA"/>
<path d="M61.7482 37.2502C61.8705 37.2515 61.9909 37.3079 62.0692 37.4135C62.2025 37.5931 62.1655 37.847 61.9855 37.9803C61.293 38.4947 60.47 38.7615 59.6057 38.7519C58.7413 38.7424 57.9825 38.4768 57.3163 37.9827C57.1364 37.8495 57.0989 37.5956 57.2321 37.4157C57.3653 37.2358 57.6193 37.1982 57.7992 37.3315C58.3271 37.7229 58.9553 37.9341 59.6151 37.9414C60.2748 37.9487 60.9538 37.7374 61.5024 37.3294C61.5764 37.2743 61.6627 37.2484 61.7482 37.2494L61.7482 37.2502Z" fill="#CDCACA"/>
<path d="M61.0262 35.7641C61.1273 35.7652 61.2283 35.8038 61.3061 35.8805C61.4658 36.0376 61.4674 36.294 61.3104 36.4536C60.866 36.9048 60.2498 37.1559 59.6158 37.1428C59.0591 37.1313 58.5259 36.9195 58.1135 36.5465C57.9477 36.3963 57.9346 36.1402 58.0848 35.974C58.235 35.8081 58.4911 35.7951 58.6574 35.9453C58.9249 36.1875 59.2715 36.325 59.6325 36.3323C60.0494 36.3402 60.4404 36.1819 60.733 35.8848C60.8134 35.8029 60.9202 35.7625 61.0262 35.7637L61.0262 35.7641Z" fill="#CDCACA"/>
</g>
<g clip-path="url(#clip2_4_194)">
<path d="M54.5781 81.0217L54.6078 80.8308L56.9854 80.8381C56.9854 80.8381 57.5023 80.8638 57.5986 81.3925C57.6948 81.9213 58.1868 84.6017 58.1868 84.6017L59.6376 80.8345L61.1027 80.8381L58.8462 86.3825L57.374 86.3898L56.2405 81.8736C56.2405 81.8736 56.1799 81.5945 55.8852 81.4477C55.6688 81.3398 55.0558 81.0976 54.5781 81.0217Z" fill="#CDCACA"/>
<path d="M61.6836 80.8381L60.543 86.3825H61.9332L63.081 80.8308L61.6836 80.8381Z" fill="#CDCACA"/>
<path d="M67.0995 80.9996C67.0995 80.9996 66.1993 80.6247 65.1983 80.7988C64.4949 80.9212 63.9766 81.2768 63.7154 81.6752C63.4683 82.0521 63.3385 82.6548 63.5681 83.1391C63.7677 83.5601 64.0909 83.7217 64.3666 83.9126C64.4854 83.9811 65.1936 84.3533 65.2934 84.5246C65.3932 84.6959 65.4787 84.8869 65.1603 85.1513C65.013 85.2688 64.6137 85.4009 64.0481 85.2884C63.6489 85.2003 63.4446 85.1513 63.1356 84.9555C63.1308 84.9555 62.8789 86.1795 62.8789 86.1795C62.8789 86.1795 63.5728 86.4683 64.3238 86.4732C64.8038 86.4829 65.4597 86.4536 66.1204 86.0032C66.4056 85.7975 66.7003 85.4597 66.8144 84.9065C66.8952 84.505 66.7906 83.9616 66.4626 83.6385C66.2583 83.428 65.8828 83.1392 65.3932 82.909C65.0985 82.7573 64.7801 82.5614 64.9512 82.1991C65.07 81.9592 65.5453 81.8564 66.073 81.9298C66.3581 81.9739 66.6765 82.0718 66.8382 82.1698C66.8335 82.1649 67.0996 80.9997 67.0996 80.9997L67.0995 80.9996Z" fill="#CDCACA"/>
<path d="M70.6278 80.837H69.3909C69.3909 80.837 69.0344 80.8077 68.8205 81.3217C68.6958 81.6192 66.7637 86.3851 66.7637 86.3851L68.2216 86.3815L68.5139 85.5443H70.2855L70.4637 86.3851H71.7434L70.6278 80.837ZM68.9132 84.4206L69.644 82.335L70.0754 84.4133L68.9132 84.4206Z" fill="#CDCACA"/>
</g>
<defs>
<filter id="filter0_dddd_4_194" x="18.2168" y="4.89331" width="66.9393" height="108.279" filterUnits="userSpaceOnUse" color-interpolation-filters="sRGB">
<feFlood flood-opacity="0" result="BackgroundImageFix"/>
<feColorMatrix in="SourceAlpha" type="matrix" values="0 0 0 0 0 0 0 0 0 0 0 0 0 0 0 0 0 0 127 0" result="hardAlpha"/>
<feOffset dy="1"/>
<feGaussianBlur stdDeviation="1"/>
<feColorMatrix type="matrix" values="0 0 0 0 0 0 0 0 0 0 0 0 0 0 0 0 0 0 0.17 0"/>
<feBlend mode="normal" in2="BackgroundImageFix" result="effect1_dropShadow_4_194"/>
<feColorMatrix in="SourceAlpha" type="matrix" values="0 0 0 0 0 0 0 0 0 0 0 0 0 0 0 0 0 0 127 0" result="hardAlpha"/>
<feOffset dx="1" dy="4"/>
<feGaussianBlur stdDeviation="2"/>
<feColorMatrix type="matrix" values="0 0 0 0 0 0 0 0 0 0 0 0 0 0 0 0 0 0 0.15 0"/>
<feBlend mode="normal" in2="effect1_dropShadow_4_194" result="effect2_dropShadow_4_194"/>
<feColorMatrix in="SourceAlpha" type="matrix" values="0 0 0 0 0 0 0 0 0 0 0 0 0 0 0 0 0 0 127 0" result="hardAlpha"/>
<feOffset dx="1" dy="8"/>
<feGaussianBlur stdDeviation="2.5"/>
<feColorMatrix type="matrix" values="0 0 0 0 0 0 0 0 0 0 0 0 0 0 0 0 0 0 0.09 0"/>
<feBlend mode="normal" in2="effect2_dropShadow_4_194" result="effect3_dropShadow_4_194"/>
<feColorMatrix in="SourceAlpha" type="matrix" values="0 0 0 0 0 0 0 0 0 0 0 0 0 0 0 0 0 0 127 0" result="hardAlpha"/>
<feOffset dx="2" dy="14"/>
<feGaussianBlur stdDeviation="3"/>
<feColorMatrix type="matrix" values="0 0 0 0 0 0 0 0 0 0 0 0 0 0 0 0 0 0 0.03 0"/>
<feBlend mode="normal" in2="effect3_dropShadow_4_194" result="effect4_dropShadow_4_194"/>
<feBlend mode="normal" in="SourceGraphic" in2="effect4_dropShadow_4_194" result="shape"/>
</filter>
<filter id="filter1_f_4_194" x="25.6977" y="0.505974" width="56.4513" height="97.7869" filterUnits="userSpaceOnUse" color-interpolation-filters="sRGB">
<feFlood flood-opacity="0" result="BackgroundImageFix"/>
<feBlend mode="normal" in="SourceGraphic" in2="BackgroundImageFix" result="shape"/>
<feGaussianBlur stdDeviation="2.69483" result="effect1_foregroundBlur_4_194"/>
</filter>
<filter id="filter2_d_4_194" x="53.9004" y="18.3165" width="11.869" height="15.0775" filterUnits="userSpaceOnUse" color-interpolation-filters="sRGB">
<feFlood flood-opacity="0" result="BackgroundImageFix"/>
<feColorMatrix in="SourceAlpha" type="matrix" values="0 0 0 0 0 0 0 0 0 0 0 0 0 0 0 0 0 0 127 0" result="hardAlpha"/>
<feOffset dy="-0.00317039"/>
<feGaussianBlur stdDeviation="0.15769"/>
<feComposite in2="hardAlpha" operator="out"/>
<feColorMatrix type="matrix" values="0 0 0 0 0 0 0 0 0 0 0 0 0 0 0 0 0 0 0.3 0"/>
<feBlend mode="normal" in2="BackgroundImageFix" result="effect1_dropShadow_4_194"/>
<feBlend mode="normal" in="SourceGraphic" in2="effect1_dropShadow_4_194" result="shape"/>
</filter>
<linearGradient id="paint0_linear_4_194" x1="30.4517" y1="65.3599" x2="70.5817" y2="87.0743" gradientUnits="userSpaceOnUse">
<stop stop-color="#D2CDCD"/>
<stop offset="0.935" stop-color="#736F69"/>
</linearGradient>
<linearGradient id="paint1_linear_4_194" x1="73.889" y1="13.8984" x2="24.7807" y2="88.7143" gradientUnits="userSpaceOnUse">
<stop stop-color="white"/>
<stop offset="1" stop-color="#2F2F2F"/>
</linearGradient>
<linearGradient id="paint2_linear_4_194" x1="30.3604" y1="11.9858" x2="70.1853" y2="86.8653" gradientUnits="userSpaceOnUse">
<stop offset="0.22" stop-color="#F7F7F7"/>
<stop offset="0.448014" stop-color="#FFFAFA"/>
<stop offset="0.935" stop-color="#E2E2E2"/>
</linearGradient>
<linearGradient id="paint3_linear_4_194" x1="73.4925" y1="13.6894" x2="24.3842" y2="88.5053" gradientUnits="userSpaceOnUse">
<stop stop-color="white"/>
<stop offset="1" stop-color="#2F2F2F"/>
</linearGradient>
<linearGradient id="paint4_linear_4_194" x1="9.88766" y1="1.97997" x2="66.1425" y2="83.0406" gradientUnits="userSpaceOnUse">
<stop stop-color="white" stop-opacity="0.35"/>
<stop offset="0.5" stop-color="#BABABA" stop-opacity="0.22"/>
<stop offset="1" stop-color="#E6E5E5"/>
</linearGradient>
<linearGradient id="paint5_linear_4_194" x1="54.9056" y1="20.1543" x2="64.6178" y2="31.4444" gradientUnits="userSpaceOnUse">
<stop stop-color="#EBC890"/>
<stop offset="1" stop-color="#D9AA60"/>
</linearGradient>
<clipPath id="clip0_4_194">
<rect x="22.2168" y="5.89331" width="54.9393" height="87.2787" rx="3.80446" fill="white"/>
</clipPath>
<clipPath id="clip1_4_194">
<rect width="7.86609" height="6.34471" fill="white" transform="translate(63.5098 42.1355) rotate(-179.364)"/>
</clipPath>
<clipPath id="clip2_4_194">
<rect width="17.165" height="5.72168" fill="white" transform="translate(54.5781 80.7527)"/>
</clipPath>
</defs>
</svg>
