<svg width="360" height="118" viewBox="0 0 360 118" fill="none" xmlns="http://www.w3.org/2000/svg">
<g filter="url(#filter0_d_131_793)">
<path d="M309.184 64.0507C305.981 65.2795 308.745 65.8222 310.527 65.9399C327.264 65.4121 361.054 64.3494 362.32 64.3212C363.902 64.2859 367.327 64.3119 366.704 61.9194C366.081 59.527 348.368 58.5876 343.761 59.7523C339.155 60.917 334.843 61.1253 328.4 59.418C321.956 57.7108 313.188 62.5146 309.184 64.0507Z" fill="#FDFF8C"/>
<path d="M81.3583 6.58263C78.0803 7.94956 80.6012 9.98335 82.2714 10.8294C96.8849 10.7582 126.576 10.4029 128.431 9.55089C132.203 6.02184 117.037 5.24901 108.983 5.30373C109.576 4.21073 109.48 1.9822 104.356 1.81209C99.2313 1.64197 96.4961 4.83057 95.769 6.44613C92.3312 5.92207 84.6362 5.21569 81.3583 6.58263Z" fill="#FDFF8C"/>
<path d="M-17.0258 111.368C-22.5245 111.888 -19.5504 115.09 -17.3761 116.627C0.664343 116.523 37.9397 116.32 42.7177 116.338C48.6903 116.36 51.2112 114.511 44.2498 112.524C33.6264 109.711 7.31981 105.676 6.99867 110.057C6.67753 114.439 -10.1525 110.718 -17.0258 111.368Z" fill="#FDFF8C"/>
</g>
<defs>
<filter id="filter0_d_131_793" x="-20.1575" y="0.978131" width="389.005" height="116.476" filterUnits="userSpaceOnUse" color-interpolation-filters="sRGB">
<feFlood flood-opacity="0" result="BackgroundImageFix"/>
<feColorMatrix in="SourceAlpha" type="matrix" values="0 0 0 0 0 0 0 0 0 0 0 0 0 0 0 0 0 0 127 0" result="hardAlpha"/>
<feOffset dx="1.2413"/>
<feGaussianBlur stdDeviation="0.413766"/>
<feComposite in2="hardAlpha" operator="out"/>
<feColorMatrix type="matrix" values="0 0 0 0 0 0 0 0 0 0 0 0 0 0 0 0 0 0 0.25 0"/>
<feBlend mode="normal" in2="BackgroundImageFix" result="effect1_dropShadow_131_793"/>
<feBlend mode="normal" in="SourceGraphic" in2="effect1_dropShadow_131_793" result="shape"/>
</filter>
</defs>
</svg>
