<svg width="1447" height="209" viewBox="0 0 1447 209" fill="none" xmlns="http://www.w3.org/2000/svg">
<g filter="url(#filter0_d_218_8335)">
<path fill-rule="evenodd" clip-rule="evenodd" d="M575.571 97.8271C703.491 81.6603 718.821 70.0207 724.357 65.4047C729.893 70.0207 745.223 81.6603 873.143 97.8271C969.49 111.316 992.262 132.71 1001.99 172.272C1002.04 172.293 1002.12 172.322 1002.21 172.36C1005.55 173.639 1027.31 183.198 1029.21 200.421H1443V65H4V200.421H419.5C423.582 180.716 441.117 174.325 445.824 172.609C446.092 172.511 446.319 172.429 446.499 172.36L446.501 172.359C446.597 172.322 446.673 172.293 446.728 172.272C456.452 132.71 479.224 111.316 575.571 97.8271Z" fill="#FBF8F6"/>
<rect x="4" width="1439" height="65" fill="#FBF8F6"/>
</g>
<defs>
<filter id="filter0_d_218_8335" x="0" y="0" width="1447" height="208.421" filterUnits="userSpaceOnUse" color-interpolation-filters="sRGB">
<feFlood flood-opacity="0" result="BackgroundImageFix"/>
<feColorMatrix in="SourceAlpha" type="matrix" values="0 0 0 0 0 0 0 0 0 0 0 0 0 0 0 0 0 0 127 0" result="hardAlpha"/>
<feOffset dy="4"/>
<feGaussianBlur stdDeviation="2"/>
<feComposite in2="hardAlpha" operator="out"/>
<feColorMatrix type="matrix" values="0 0 0 0 0 0 0 0 0 0 0 0 0 0 0 0 0 0 0.25 0"/>
<feBlend mode="normal" in2="BackgroundImageFix" result="effect1_dropShadow_218_8335"/>
<feBlend mode="normal" in="SourceGraphic" in2="effect1_dropShadow_218_8335" result="shape"/>
</filter>
</defs>
</svg>
