<svg width="1468" height="209" viewBox="0 0 1468 209" fill="none" xmlns="http://www.w3.org/2000/svg">
<g filter="url(#filter0_d_218_8335)">
<path fill-rule="evenodd" clip-rule="evenodd" d="M594.555 97.7646C722.549 81.5978 737.888 69.9582 743.427 65.3422C748.966 69.9582 764.305 81.5978 892.298 97.7646C988.7 111.253 1011.49 132.648 1021.22 172.209C1021.27 172.231 1021.35 172.26 1021.44 172.297C1024.78 173.576 1046.55 183.136 1048.46 200.358H1462.48V64.9375H22.6562V200.358H438.395C442.479 180.653 460.024 174.262 464.734 172.547C465.003 172.449 465.229 172.366 465.41 172.297C465.473 172.273 465.527 172.252 465.572 172.235C465.597 172.225 465.619 172.217 465.638 172.209C475.368 132.648 498.153 111.253 594.555 97.7646Z" fill="#FBF8F6"/>
<rect x="4" width="1459.57" height="65.3661" fill="#FBF8F6"/>
</g>
<defs>
<filter id="filter0_d_218_8335" x="0" y="0" width="1467.57" height="208.358" filterUnits="userSpaceOnUse" color-interpolation-filters="sRGB">
<feFlood flood-opacity="0" result="BackgroundImageFix"/>
<feColorMatrix in="SourceAlpha" type="matrix" values="0 0 0 0 0 0 0 0 0 0 0 0 0 0 0 0 0 0 127 0" result="hardAlpha"/>
<feOffset dy="4"/>
<feGaussianBlur stdDeviation="2"/>
<feComposite in2="hardAlpha" operator="out"/>
<feColorMatrix type="matrix" values="0 0 0 0 0 0 0 0 0 0 0 0 0 0 0 0 0 0 0.25 0"/>
<feBlend mode="normal" in2="BackgroundImageFix" result="effect1_dropShadow_218_8335"/>
<feBlend mode="normal" in="SourceGraphic" in2="effect1_dropShadow_218_8335" result="shape"/>
</filter>
</defs>
</svg>
