<svg width="83" height="29" viewBox="0 0 83 29" fill="none" xmlns="http://www.w3.org/2000/svg">
<path d="M1.89673 21.5883C10.0865 20.1086 11.6031 12.5623 10.769 8.56725C9.78316 4.86806 3.11003 4.05426 2.73087 11.9705C2.57921 17.7412 4.62573 24.105 13.7952 23.2175C20.3911 22.2382 17.6158 13.7035 10.2381 15.9656" stroke="#2D2D2C" stroke-width="2.77549" stroke-linecap="square"/>
<path d="M26.8688 24.1226C25.6197 24.1226 24.5077 23.8408 23.5328 23.2772C22.5579 22.6983 21.8038 21.9138 21.2707 20.9237C20.7375 19.9183 20.471 18.8139 20.471 17.6105C20.471 16.3919 20.7375 15.2951 21.2707 14.3202C21.8038 13.3301 22.5426 12.5532 23.4871 11.9896C24.4315 11.426 25.4826 11.1441 26.6403 11.1441C27.8894 11.1441 28.9633 11.4183 29.862 11.9667C30.776 12.4999 31.4767 13.2311 31.9642 14.1603C32.4516 15.0895 32.6954 16.1101 32.6954 17.2221C32.6954 17.74 32.642 18.1589 32.5354 18.4788H22.9387V16.1939H30.8446L29.4279 17.2678C29.565 16.5823 29.5269 15.9654 29.3137 15.417C29.1156 14.8534 28.7805 14.4116 28.3083 14.0917C27.8361 13.7718 27.2801 13.6119 26.6403 13.6119C26.0157 13.6119 25.4521 13.7718 24.9494 14.0917C24.462 14.4116 24.0964 14.8762 23.8527 15.4855C23.6089 16.0948 23.5175 16.8108 23.5785 17.6334C23.5175 18.395 23.6166 19.0653 23.8755 19.6441C24.1497 20.223 24.5458 20.6799 25.0637 21.0151C25.5968 21.335 26.2061 21.4949 26.8916 21.4949C27.5466 21.4949 28.1179 21.3578 28.6053 21.0836C29.0928 20.7942 29.4812 20.3981 29.7706 19.8955L32.1927 21.0836C31.8119 21.9824 31.1416 22.7135 30.1819 23.2772C29.2223 23.8408 28.1179 24.1226 26.8688 24.1226ZM34.2789 6.55143H37.2722V23.8484H34.2789V6.55143ZM45.4055 24.1226C44.2173 24.1226 43.1129 23.8408 42.0923 23.2772C41.087 22.7135 40.2949 21.9367 39.716 20.9465C39.1371 19.9564 38.8477 18.852 38.8477 17.6334C38.8477 16.3995 39.1371 15.2951 39.716 14.3202C40.2949 13.3301 41.087 12.5532 42.0923 11.9896C43.0977 11.426 44.2021 11.1441 45.4055 11.1441C46.6241 11.1441 47.7285 11.426 48.7186 11.9896C49.724 12.5532 50.5161 13.3301 51.095 14.3202C51.6891 15.3103 51.9861 16.4147 51.9861 17.6334C51.9861 18.8672 51.6891 19.9792 51.095 20.9694C50.5161 21.9443 49.724 22.7135 48.7186 23.2772C47.7133 23.8408 46.6089 24.1226 45.4055 24.1226ZM45.4283 21.3807C46.0834 21.3807 46.6698 21.2207 47.1877 20.9008C47.7057 20.5809 48.1093 20.1392 48.3988 19.5756C48.7034 18.9967 48.8557 18.3493 48.8557 17.6334C48.8557 16.9174 48.7034 16.2776 48.3988 15.714C48.1093 15.1504 47.7057 14.7086 47.1877 14.3888C46.6698 14.0536 46.0757 13.8861 45.4055 13.8861C44.7505 13.8861 44.1564 14.0536 43.6232 14.3888C43.1053 14.7086 42.694 15.1504 42.3894 15.714C42.0999 16.2776 41.9552 16.9174 41.9552 17.6334C41.9552 18.3493 42.0999 18.9967 42.3894 19.5756C42.694 20.1392 43.1053 20.5809 43.6232 20.9008C44.1564 21.2207 44.7581 21.3807 45.4283 21.3807ZM53.5706 11.4183H56.381V13.8632L56.1525 13.4291C56.442 12.6827 56.9066 12.1191 57.5463 11.7382C58.2014 11.3422 58.9859 11.1441 59.8998 11.1441C60.7986 11.1441 61.6059 11.3422 62.3219 11.7382C63.0378 12.1343 63.5938 12.6903 63.9899 13.4062C64.3859 14.1222 64.5839 14.9371 64.5839 15.8511V23.8484H61.5907V16.5594C61.5907 16.0263 61.4841 15.5617 61.2708 15.1656C61.0575 14.7543 60.7605 14.4421 60.3797 14.2288C59.9988 14.0003 59.5647 13.8861 59.0773 13.8861C58.3308 13.8861 57.7215 14.1298 57.2493 14.6173C56.7923 15.1047 56.5638 15.7521 56.5638 16.5594V23.8484H53.5706V11.4183ZM72.4618 28.8752C71.0604 28.8752 69.8341 28.5477 68.783 27.8927C67.732 27.2377 67.0008 26.3542 66.5895 25.2422L69.3771 24.1911C69.5599 24.7852 69.9255 25.2574 70.4739 25.6078C71.0223 25.9581 71.6849 26.1333 72.4618 26.1333C73.0711 26.1333 73.6043 26.0191 74.0612 25.7906C74.5335 25.5621 74.8991 25.227 75.158 24.7852C75.417 24.3435 75.5465 23.8255 75.5465 23.2315V20.3981L76.1177 21.0836C75.6912 21.83 75.1199 22.3936 74.404 22.7745C73.688 23.1553 72.8731 23.3457 71.9591 23.3457C70.8166 23.3457 69.7808 23.0791 68.8516 22.546C67.9376 22.0128 67.2217 21.2816 66.7038 20.3524C66.1858 19.4232 65.9269 18.3798 65.9269 17.2221C65.9269 16.0796 66.1782 15.0438 66.6809 14.1146C67.1988 13.1854 67.9072 12.4618 68.8059 11.9439C69.7199 11.4107 70.7481 11.1441 71.8906 11.1441C72.8198 11.1441 73.6347 11.3346 74.3354 11.7154C75.0362 12.0962 75.6302 12.6598 76.1177 13.4062L75.7064 14.1603V11.4183H78.5397V23.2315C78.5397 24.313 78.2808 25.2803 77.7628 26.1333C77.2449 26.9864 76.5214 27.6566 75.5922 28.1441C74.6782 28.6315 73.6347 28.8752 72.4618 28.8752ZM72.3247 20.5809C72.9492 20.5809 73.5052 20.4438 73.9927 20.1696C74.4802 19.8802 74.861 19.4842 75.1352 18.9815C75.4094 18.4788 75.5465 17.8999 75.5465 17.2449C75.5465 16.6051 75.4017 16.0339 75.1123 15.5312C74.8381 15.0133 74.4573 14.6096 73.9699 14.3202C73.4976 14.0308 72.9492 13.8861 72.3247 13.8861C71.7001 13.8861 71.1365 14.0308 70.6338 14.3202C70.1312 14.6096 69.7351 15.0133 69.4457 15.5312C69.1715 16.0491 69.0344 16.6204 69.0344 17.2449C69.0344 17.8847 69.1715 18.4559 69.4457 18.9586C69.7351 19.4613 70.1312 19.8574 70.6338 20.1468C71.1365 20.4362 71.7001 20.5809 72.3247 20.5809Z" fill="#2D2D2C"/>
</svg>
