<svg width="1440" height="136" viewBox="0 0 1440 136" fill="none" xmlns="http://www.w3.org/2000/svg">
<path fill-rule="evenodd" clip-rule="evenodd" d="M571.899 32.8271C699.893 16.6603 715.231 5.02067 720.771 0.404711C726.31 5.02067 741.648 16.6603 869.642 32.8271C966.044 46.3159 988.829 67.7104 998.559 107.272C998.614 107.293 998.691 107.322 998.788 107.36C1002.13 108.639 1023.9 118.198 1025.8 135.421H1439.83V0H0V135.421H415.739C419.823 115.716 437.368 109.325 442.078 107.609C442.346 107.511 442.573 107.429 442.754 107.36C442.816 107.336 442.871 107.315 442.916 107.297C442.941 107.288 442.963 107.279 442.982 107.272C452.712 67.7104 475.497 46.3159 571.899 32.8271Z" fill="#FBF8F6"/>
</svg>
