<svg width="379" height="136" viewBox="0 0 379 136" fill="none" xmlns="http://www.w3.org/2000/svg">
<path d="M189.298 0.404713C185.89 5.02067 176.451 16.6603 97.6854 32.8272C38.3613 46.3159 24.3396 67.7104 18.352 107.272C18.3182 107.293 18.271 107.322 18.2113 107.36C16.1561 108.639 -0.740481 119.156 1.58691 135.421C-1.28713 134.204 0.389389 44.8867 1.58691 0H377.01C378.208 44.8867 379.884 134.204 377.01 135.421C379.337 119.156 362.441 108.639 360.386 107.36C360.326 107.322 360.279 107.293 360.245 107.272C354.257 67.7104 340.236 46.3159 280.912 32.8272C202.146 16.6603 192.707 5.02067 189.298 0.404713Z" fill="#FBF8F6"/>
</svg>
